%TF.GenerationSoftware,KiCad,Pcbnew,9.0.6*%
%TF.CreationDate,2026-08-21T23:19:18+03:00*%
%TF.ProjectId,spymic,7370796d-6963-42e6-9b69-6361645f7063,rev?*%
%TF.SameCoordinates,Original*%
%TF.FileFunction,Copper,L2,Bot*%
%TF.FilePolarity,Positive*%
%FSLAX46Y46*%
G04 Gerber Fmt 4.6, Leading zero omitted, Abs format (unit mm)*
G04 Created by KiCad (PCBNEW 9.0.6) date 2026-08-21 23:19:18*
%MOMM*%
%LPD*%
G01*
G04 APERTURE LIST*
G04 Aperture macros list*
%AMRoundRect*
0 Rectangle with rounded corners*
0 $1 Rounding radius*
0 $2 $3 $4 $5 $6 $7 $8 $9 X,Y pos of 4 corners*
0 Add a 4 corners polygon primitive as box body*
4,1,4,$2,$3,$4,$5,$6,$7,$8,$9,$2,$3,0*
0 Add four circle primitives for the rounded corners*
1,1,$1+$1,$2,$3*
1,1,$1+$1,$4,$5*
1,1,$1+$1,$6,$7*
1,1,$1+$1,$8,$9*
0 Add four rect primitives between the rounded corners*
20,1,$1+$1,$2,$3,$4,$5,0*
20,1,$1+$1,$4,$5,$6,$7,0*
20,1,$1+$1,$6,$7,$8,$9,0*
20,1,$1+$1,$8,$9,$2,$3,0*%
%AMHorizOval*
0 Thick line with rounded ends*
0 $1 width*
0 $2 $3 position (X,Y) of the first rounded end (center of the circle)*
0 $4 $5 position (X,Y) of the second rounded end (center of the circle)*
0 Add line between two ends*
20,1,$1,$2,$3,$4,$5,0*
0 Add two circle primitives to create the rounded ends*
1,1,$1,$2,$3*
1,1,$1,$4,$5*%
%AMRotRect*
0 Rectangle, with rotation*
0 The origin of the aperture is its center*
0 $1 length*
0 $2 width*
0 $3 Rotation angle, in degrees counterclockwise*
0 Add horizontal line*
21,1,$1,$2,0,0,$3*%
G04 Aperture macros list end*
%TA.AperFunction,ComponentPad*%
%ADD10C,1.000000*%
%TD*%
%TA.AperFunction,ComponentPad*%
%ADD11C,1.700000*%
%TD*%
%TA.AperFunction,ComponentPad*%
%ADD12HorizOval,3.000000X-0.106066X0.106066X0.106066X-0.106066X0*%
%TD*%
%TA.AperFunction,ComponentPad*%
%ADD13HorizOval,3.000000X0.106066X0.106066X-0.106066X-0.106066X0*%
%TD*%
%TA.AperFunction,ComponentPad*%
%ADD14C,2.000000*%
%TD*%
%TA.AperFunction,ComponentPad*%
%ADD15RoundRect,0.250000X-0.750000X-0.750000X0.750000X-0.750000X0.750000X0.750000X-0.750000X0.750000X0*%
%TD*%
%TA.AperFunction,ComponentPad*%
%ADD16RoundRect,0.250000X0.750000X0.750000X-0.750000X0.750000X-0.750000X-0.750000X0.750000X-0.750000X0*%
%TD*%
%TA.AperFunction,ComponentPad*%
%ADD17RotRect,1.600000X1.600000X225.000000*%
%TD*%
%TA.AperFunction,ComponentPad*%
%ADD18C,1.600000*%
%TD*%
%TA.AperFunction,ViaPad*%
%ADD19C,0.600000*%
%TD*%
%TA.AperFunction,Conductor*%
%ADD20C,0.200000*%
%TD*%
G04 APERTURE END LIST*
D10*
%TO.P,CN1,*%
%TO.N,*%
X124176889Y-100000000D03*
X117176887Y-100000000D03*
%TD*%
D11*
%TO.P,R7,1,1*%
%TO.N,Net-(R5-Pad2)*%
X133324891Y-86578263D03*
%TO.P,R7,2,2*%
%TO.N,SIG*%
X135092658Y-84810496D03*
%TO.P,R7,3,3*%
%TO.N,unconnected-(R7-Pad3)*%
X136860425Y-83042728D03*
D12*
%TO.P,R7,4,4*%
%TO.N,GND*%
X133678445Y-76325214D03*
%TO.P,R7,5,5*%
X126607378Y-83396283D03*
%TD*%
D13*
%TO.P,R5,5,5*%
%TO.N,GND*%
X133560661Y-123510407D03*
%TO.P,R5,4,4*%
X126489592Y-116439340D03*
D11*
%TO.P,R5,3,3*%
%TO.N,unconnected-(R5-Pad3)*%
X133207106Y-113257360D03*
%TO.P,R5,2,2*%
%TO.N,Net-(R5-Pad2)*%
X134974874Y-115025127D03*
%TO.P,R5,1,1*%
%TO.N,Net-(R3-Pad2)*%
X136742641Y-116792894D03*
%TD*%
D14*
%TO.P,MK1,2,+*%
%TO.N,Net-(MK1-+)*%
X124250000Y-104500000D03*
D15*
%TO.P,MK1,1,-*%
%TO.N,GND*%
X119750000Y-104500000D03*
%TD*%
D14*
%TO.P,J1,2,Pin_2*%
%TO.N,GND*%
X174250000Y-106125000D03*
D16*
%TO.P,J1,1,Pin_1*%
%TO.N,Net-(J1-Pin_1)*%
X178750000Y-106125000D03*
%TD*%
D17*
%TO.P,U5,1,VIN*%
%TO.N,Net-(J1-Pin_1)*%
X172147003Y-114054901D03*
D18*
%TO.P,U5,2,GND*%
%TO.N,GND*%
X170350952Y-115850952D03*
%TO.P,U5,3,VOUT*%
%TO.N,5V+*%
X168554901Y-117647003D03*
%TD*%
D19*
%TO.N,3V3-*%
X126390119Y-108109882D03*
X157000000Y-122000000D03*
%TO.N,Net-(R3-Pad2)*%
X133000000Y-116500000D03*
%TO.N,GND*%
X155500000Y-125000000D03*
X151500000Y-125000000D03*
%TO.N,5V+*%
X147590000Y-122600000D03*
%TD*%
D20*
%TO.N,3V3-*%
X126390119Y-108635233D02*
X126390119Y-108109882D01*
X133931013Y-116176127D02*
X126390119Y-108635233D01*
X135451634Y-116176127D02*
X133931013Y-116176127D01*
X136125874Y-115501887D02*
X135451634Y-116176127D01*
X137079394Y-115501887D02*
X136125874Y-115501887D01*
X143577507Y-122000000D02*
X137079394Y-115501887D01*
X157000000Y-122000000D02*
X143577507Y-122000000D01*
%TO.N,Net-(R3-Pad2)*%
X133292894Y-116792894D02*
X136742641Y-116792894D01*
X133000000Y-116500000D02*
X133292894Y-116792894D01*
%TO.N,GND*%
X155500000Y-125000000D02*
X151500000Y-125000000D01*
%TO.N,5V+*%
X163601904Y-122600000D02*
X147590000Y-122600000D01*
X168554901Y-117647003D02*
X163601904Y-122600000D01*
%TO.N,Net-(R5-Pad2)*%
X129899000Y-90004154D02*
X133324891Y-86578263D01*
X129899000Y-111577014D02*
X129899000Y-90004154D01*
X133347113Y-115025127D02*
X129899000Y-111577014D01*
X134974874Y-115025127D02*
X133347113Y-115025127D01*
%TD*%
%TA.AperFunction,Conductor*%
%TO.N,GND*%
G36*
X150582644Y-66001904D02*
G01*
X151738874Y-66041402D01*
X151743000Y-66041614D01*
X152897204Y-66120564D01*
X152901386Y-66120922D01*
X154052230Y-66239232D01*
X154056343Y-66239726D01*
X155202475Y-66397259D01*
X155206603Y-66397898D01*
X156346661Y-66594464D01*
X156350817Y-66595254D01*
X157483496Y-66830628D01*
X157487537Y-66831540D01*
X158611559Y-67105455D01*
X158615565Y-67106504D01*
X159729571Y-67418634D01*
X159733624Y-67419844D01*
X160836287Y-67769814D01*
X160840267Y-67771153D01*
X161930333Y-68158563D01*
X161934257Y-68160034D01*
X163010477Y-68584441D01*
X163014389Y-68586061D01*
X164075443Y-69046942D01*
X164079297Y-69048695D01*
X164461917Y-69230660D01*
X165124017Y-69545540D01*
X165127766Y-69547402D01*
X166154949Y-70079646D01*
X166158661Y-70081651D01*
X167167046Y-70648638D01*
X167170700Y-70650776D01*
X168159100Y-71251835D01*
X168162680Y-71254096D01*
X169130040Y-71888587D01*
X169133533Y-71890965D01*
X170078634Y-72558090D01*
X170082015Y-72560564D01*
X170648907Y-72990451D01*
X171003817Y-73259589D01*
X171007147Y-73262205D01*
X171305538Y-73504964D01*
X171904550Y-73992296D01*
X171907745Y-73994988D01*
X171982515Y-74060184D01*
X172779659Y-74755259D01*
X172782802Y-74758095D01*
X173628303Y-75547736D01*
X173631348Y-75550679D01*
X174449320Y-76368651D01*
X174452263Y-76371696D01*
X175241904Y-77217197D01*
X175244740Y-77220340D01*
X175527664Y-77544810D01*
X175934335Y-78011200D01*
X176004993Y-78092233D01*
X176007707Y-78095455D01*
X176122378Y-78236404D01*
X176737794Y-78992852D01*
X176740410Y-78996182D01*
X177439422Y-79917966D01*
X177441916Y-79921375D01*
X177658052Y-80227570D01*
X178109029Y-80866459D01*
X178111412Y-80869959D01*
X178745903Y-81837319D01*
X178748164Y-81840899D01*
X179349223Y-82829299D01*
X179351361Y-82832953D01*
X179918348Y-83841338D01*
X179920360Y-83845064D01*
X180452586Y-84872212D01*
X180454469Y-84876004D01*
X180951304Y-85920702D01*
X180953057Y-85924556D01*
X181413938Y-86985610D01*
X181415558Y-86989522D01*
X181839965Y-88065742D01*
X181841447Y-88069698D01*
X181877339Y-88170686D01*
X182228840Y-89159716D01*
X182230190Y-89163729D01*
X182580153Y-90266371D01*
X182581365Y-90270428D01*
X182893483Y-91384389D01*
X182894553Y-91388481D01*
X182927211Y-91522490D01*
X183168449Y-92512418D01*
X183169381Y-92516548D01*
X183404744Y-93649178D01*
X183405535Y-93653338D01*
X183602096Y-94793368D01*
X183602744Y-94797552D01*
X183760267Y-95943611D01*
X183760772Y-95947815D01*
X183879075Y-97098595D01*
X183879436Y-97102814D01*
X183958382Y-98256947D01*
X183958599Y-98261176D01*
X183998095Y-99417355D01*
X183998167Y-99421588D01*
X183998167Y-100578411D01*
X183998095Y-100582644D01*
X183958599Y-101738823D01*
X183958382Y-101743052D01*
X183879436Y-102897185D01*
X183879075Y-102901404D01*
X183760772Y-104052184D01*
X183760267Y-104056388D01*
X183602744Y-105202447D01*
X183602096Y-105206631D01*
X183405535Y-106346661D01*
X183404744Y-106350821D01*
X183169381Y-107483451D01*
X183168449Y-107487581D01*
X182894555Y-108611514D01*
X182893483Y-108615610D01*
X182581365Y-109729571D01*
X182580153Y-109733628D01*
X182230190Y-110836270D01*
X182228840Y-110840283D01*
X181841451Y-111930292D01*
X181839965Y-111934257D01*
X181415558Y-113010477D01*
X181413938Y-113014389D01*
X180953057Y-114075443D01*
X180951304Y-114079297D01*
X180454469Y-115123995D01*
X180452586Y-115127787D01*
X179920360Y-116154935D01*
X179918348Y-116158661D01*
X179351361Y-117167046D01*
X179349223Y-117170700D01*
X178748164Y-118159100D01*
X178745903Y-118162680D01*
X178111412Y-119130040D01*
X178109029Y-119133540D01*
X177441922Y-120078616D01*
X177439422Y-120082033D01*
X176740410Y-121003817D01*
X176737794Y-121007147D01*
X176007721Y-121904528D01*
X176004993Y-121907766D01*
X175244740Y-122779659D01*
X175241904Y-122782802D01*
X174452263Y-123628303D01*
X174449320Y-123631348D01*
X173631348Y-124449320D01*
X173628303Y-124452263D01*
X172782802Y-125241904D01*
X172779659Y-125244740D01*
X171907766Y-126004993D01*
X171904528Y-126007721D01*
X171007147Y-126737794D01*
X171003817Y-126740410D01*
X170082033Y-127439422D01*
X170078616Y-127441922D01*
X169133540Y-128109029D01*
X169130040Y-128111412D01*
X168162680Y-128745903D01*
X168159100Y-128748164D01*
X167170700Y-129349223D01*
X167167046Y-129351361D01*
X166158661Y-129918348D01*
X166154935Y-129920360D01*
X165127787Y-130452586D01*
X165123995Y-130454469D01*
X164079297Y-130951304D01*
X164075443Y-130953057D01*
X163014389Y-131413938D01*
X163010477Y-131415558D01*
X161934257Y-131839965D01*
X161930292Y-131841451D01*
X160840283Y-132228840D01*
X160836270Y-132230190D01*
X159733628Y-132580153D01*
X159729571Y-132581365D01*
X158615610Y-132893483D01*
X158611514Y-132894555D01*
X157487581Y-133168449D01*
X157483451Y-133169381D01*
X156350821Y-133404744D01*
X156346661Y-133405535D01*
X155206631Y-133602096D01*
X155202447Y-133602744D01*
X154056388Y-133760267D01*
X154052184Y-133760772D01*
X152901404Y-133879075D01*
X152897185Y-133879436D01*
X151743052Y-133958382D01*
X151738823Y-133958599D01*
X150582645Y-133998095D01*
X150578412Y-133998167D01*
X149421588Y-133998167D01*
X149417355Y-133998095D01*
X148261176Y-133958599D01*
X148256947Y-133958382D01*
X147102814Y-133879436D01*
X147098595Y-133879075D01*
X145947815Y-133760772D01*
X145943611Y-133760267D01*
X144797552Y-133602744D01*
X144793368Y-133602096D01*
X143653338Y-133405535D01*
X143649178Y-133404744D01*
X142516548Y-133169381D01*
X142512418Y-133168449D01*
X141388485Y-132894555D01*
X141384389Y-132893483D01*
X140270428Y-132581365D01*
X140266371Y-132580153D01*
X139163729Y-132230190D01*
X139159716Y-132228840D01*
X138069707Y-131841451D01*
X138065742Y-131839965D01*
X136989522Y-131415558D01*
X136985610Y-131413938D01*
X135924556Y-130953057D01*
X135920702Y-130951304D01*
X134876004Y-130454469D01*
X134872212Y-130452586D01*
X133845064Y-129920360D01*
X133841338Y-129918348D01*
X132832953Y-129351361D01*
X132829299Y-129349223D01*
X131840899Y-128748164D01*
X131837319Y-128745903D01*
X130869959Y-128111412D01*
X130866459Y-128109029D01*
X129921383Y-127441922D01*
X129917966Y-127439422D01*
X129894907Y-127421936D01*
X129643680Y-127231424D01*
X128996182Y-126740410D01*
X128992852Y-126737794D01*
X128520438Y-126353457D01*
X128095455Y-126007707D01*
X128092249Y-126005006D01*
X127529590Y-125514393D01*
X127220340Y-125244740D01*
X127217196Y-125241903D01*
X127214153Y-125239061D01*
X126371696Y-124452263D01*
X126368651Y-124449320D01*
X125550679Y-123631348D01*
X125547736Y-123628303D01*
X125489519Y-123565967D01*
X125489515Y-123565964D01*
X125414253Y-123485378D01*
X131454595Y-123485378D01*
X131454595Y-123747567D01*
X131488815Y-124007487D01*
X131556674Y-124260738D01*
X131656996Y-124502940D01*
X131657004Y-124502956D01*
X131788083Y-124729989D01*
X131788089Y-124729997D01*
X131874675Y-124842838D01*
X132592013Y-124125499D01*
X132677837Y-124253944D01*
X132817124Y-124393231D01*
X132945566Y-124479053D01*
X132228228Y-125196390D01*
X132228228Y-125196391D01*
X132341070Y-125282978D01*
X132341078Y-125282984D01*
X132568111Y-125414063D01*
X132568127Y-125414071D01*
X132810329Y-125514393D01*
X133063580Y-125582252D01*
X133323500Y-125616472D01*
X133323515Y-125616473D01*
X133585675Y-125616473D01*
X133585689Y-125616472D01*
X133845609Y-125582252D01*
X134098860Y-125514393D01*
X134341062Y-125414071D01*
X134341078Y-125414063D01*
X134568111Y-125282984D01*
X134568127Y-125282973D01*
X134776113Y-125123380D01*
X134798096Y-125101396D01*
X134090779Y-124394078D01*
X134092048Y-124393231D01*
X134443485Y-124041794D01*
X134444332Y-124040525D01*
X135151650Y-124747842D01*
X135173634Y-124725859D01*
X135333227Y-124517873D01*
X135333238Y-124517857D01*
X135464317Y-124290824D01*
X135464325Y-124290808D01*
X135564647Y-124048606D01*
X135632506Y-123795355D01*
X135666726Y-123535435D01*
X135666727Y-123535421D01*
X135666727Y-123273260D01*
X135666726Y-123273246D01*
X135632506Y-123013326D01*
X135564647Y-122760075D01*
X135464325Y-122517873D01*
X135464317Y-122517857D01*
X135333238Y-122290824D01*
X135333232Y-122290816D01*
X135246645Y-122177974D01*
X135246644Y-122177974D01*
X134529306Y-122895312D01*
X134443485Y-122766871D01*
X134304197Y-122627583D01*
X134175753Y-122541759D01*
X134893092Y-121824421D01*
X134780251Y-121737835D01*
X134780243Y-121737829D01*
X134553210Y-121606750D01*
X134553194Y-121606742D01*
X134310992Y-121506420D01*
X134057741Y-121438561D01*
X133797821Y-121404341D01*
X133535632Y-121404341D01*
X133275712Y-121438561D01*
X133022461Y-121506420D01*
X132780259Y-121606742D01*
X132780243Y-121606750D01*
X132553210Y-121737829D01*
X132553194Y-121737840D01*
X132345209Y-121897432D01*
X132345200Y-121897440D01*
X132323224Y-121919415D01*
X132323223Y-121919417D01*
X133030541Y-122626735D01*
X133029274Y-122627583D01*
X132677837Y-122979020D01*
X132676989Y-122980288D01*
X131969670Y-122272969D01*
X131969669Y-122272970D01*
X131947694Y-122294946D01*
X131947686Y-122294955D01*
X131788094Y-122502940D01*
X131788083Y-122502956D01*
X131657004Y-122729989D01*
X131656996Y-122730005D01*
X131556674Y-122972207D01*
X131488815Y-123225458D01*
X131454595Y-123485378D01*
X125414253Y-123485378D01*
X124758095Y-122782803D01*
X124755259Y-122779659D01*
X124230616Y-122177974D01*
X123994988Y-121907745D01*
X123992296Y-121904550D01*
X123443723Y-121230263D01*
X123262205Y-121007147D01*
X123259589Y-121003817D01*
X122560577Y-120082033D01*
X122558077Y-120078616D01*
X122422365Y-119886356D01*
X121890965Y-119133533D01*
X121888587Y-119130040D01*
X121742685Y-118907595D01*
X121445838Y-118455014D01*
X121254096Y-118162680D01*
X121251835Y-118159101D01*
X120878180Y-117544651D01*
X120650776Y-117170700D01*
X120648638Y-117167046D01*
X120257290Y-116471034D01*
X120225396Y-116414311D01*
X124383526Y-116414311D01*
X124383526Y-116676500D01*
X124417746Y-116936420D01*
X124485605Y-117189671D01*
X124585927Y-117431873D01*
X124585935Y-117431889D01*
X124717014Y-117658922D01*
X124717020Y-117658930D01*
X124803606Y-117771771D01*
X125520944Y-117054432D01*
X125606768Y-117182877D01*
X125746055Y-117322164D01*
X125874497Y-117407986D01*
X125157159Y-118125323D01*
X125157159Y-118125324D01*
X125270001Y-118211911D01*
X125270009Y-118211917D01*
X125497042Y-118342996D01*
X125497058Y-118343004D01*
X125739260Y-118443326D01*
X125992511Y-118511185D01*
X126252431Y-118545405D01*
X126252446Y-118545406D01*
X126514606Y-118545406D01*
X126514620Y-118545405D01*
X126774540Y-118511185D01*
X127027791Y-118443326D01*
X127269993Y-118343004D01*
X127270009Y-118342996D01*
X127497042Y-118211917D01*
X127497058Y-118211906D01*
X127705044Y-118052313D01*
X127727027Y-118030329D01*
X127019710Y-117323011D01*
X127020979Y-117322164D01*
X127372416Y-116970727D01*
X127373263Y-116969458D01*
X128080581Y-117676775D01*
X128102565Y-117654792D01*
X128262158Y-117446806D01*
X128262169Y-117446790D01*
X128393248Y-117219757D01*
X128393256Y-117219741D01*
X128493578Y-116977539D01*
X128561437Y-116724288D01*
X128595657Y-116464368D01*
X128595658Y-116464354D01*
X128595658Y-116202193D01*
X128595657Y-116202179D01*
X128561437Y-115942259D01*
X128493578Y-115689008D01*
X128393256Y-115446806D01*
X128393248Y-115446790D01*
X128262169Y-115219757D01*
X128262163Y-115219749D01*
X128175576Y-115106907D01*
X128175575Y-115106907D01*
X127458237Y-115824245D01*
X127372416Y-115695804D01*
X127233128Y-115556516D01*
X127104684Y-115470692D01*
X127822023Y-114753354D01*
X127709182Y-114666768D01*
X127709174Y-114666762D01*
X127482141Y-114535683D01*
X127482125Y-114535675D01*
X127239923Y-114435353D01*
X126986672Y-114367494D01*
X126726752Y-114333274D01*
X126464563Y-114333274D01*
X126204643Y-114367494D01*
X125951392Y-114435353D01*
X125709190Y-114535675D01*
X125709174Y-114535683D01*
X125482141Y-114666762D01*
X125482125Y-114666773D01*
X125274140Y-114826365D01*
X125274131Y-114826373D01*
X125252155Y-114848348D01*
X125252154Y-114848350D01*
X125959472Y-115555668D01*
X125958205Y-115556516D01*
X125606768Y-115907953D01*
X125605920Y-115909221D01*
X124898601Y-115201902D01*
X124898600Y-115201903D01*
X124876625Y-115223879D01*
X124876617Y-115223888D01*
X124717025Y-115431873D01*
X124717014Y-115431889D01*
X124585935Y-115658922D01*
X124585927Y-115658938D01*
X124485605Y-115901140D01*
X124417746Y-116154391D01*
X124383526Y-116414311D01*
X120225396Y-116414311D01*
X120081651Y-116158661D01*
X120079639Y-116154935D01*
X120061959Y-116120814D01*
X119547402Y-115127766D01*
X119545530Y-115123995D01*
X119537403Y-115106907D01*
X119048695Y-114079297D01*
X119046942Y-114075443D01*
X118586061Y-113014389D01*
X118584441Y-113010477D01*
X118160034Y-111934257D01*
X118158563Y-111930333D01*
X117771153Y-110840267D01*
X117769809Y-110836270D01*
X117724774Y-110694378D01*
X117419844Y-109733624D01*
X117418634Y-109729571D01*
X117385978Y-109613020D01*
X117106504Y-108615565D01*
X117105455Y-108611559D01*
X116963986Y-108031035D01*
X125589619Y-108031035D01*
X125589619Y-108188728D01*
X125620380Y-108343371D01*
X125620383Y-108343383D01*
X125680721Y-108489054D01*
X125680728Y-108489067D01*
X125768720Y-108620755D01*
X125789598Y-108687432D01*
X125789618Y-108689646D01*
X125789618Y-108714287D01*
X125789617Y-108714287D01*
X125830542Y-108867018D01*
X125859477Y-108917133D01*
X125859478Y-108917137D01*
X125859479Y-108917137D01*
X125909598Y-109003947D01*
X125909600Y-109003950D01*
X126028468Y-109122818D01*
X126028474Y-109122823D01*
X132559201Y-115653551D01*
X132592686Y-115714874D01*
X132587702Y-115784566D01*
X132545830Y-115840499D01*
X132540411Y-115844334D01*
X132489711Y-115878210D01*
X132489707Y-115878213D01*
X132378213Y-115989707D01*
X132378210Y-115989711D01*
X132290609Y-116120814D01*
X132290602Y-116120827D01*
X132230264Y-116266498D01*
X132230261Y-116266510D01*
X132199500Y-116421153D01*
X132199500Y-116578846D01*
X132230261Y-116733489D01*
X132230264Y-116733501D01*
X132290602Y-116879172D01*
X132290609Y-116879185D01*
X132378210Y-117010288D01*
X132378213Y-117010292D01*
X132489707Y-117121786D01*
X132489711Y-117121789D01*
X132620814Y-117209390D01*
X132620827Y-117209397D01*
X132701818Y-117242944D01*
X132766503Y-117269737D01*
X132921153Y-117300499D01*
X132921156Y-117300500D01*
X132921158Y-117300500D01*
X132937868Y-117300500D01*
X132999867Y-117317112D01*
X133061110Y-117352471D01*
X133213837Y-117393395D01*
X133213839Y-117393395D01*
X133379548Y-117393395D01*
X133379564Y-117393394D01*
X135456922Y-117393394D01*
X135523961Y-117413079D01*
X135567406Y-117461099D01*
X135587588Y-117500708D01*
X135587589Y-117500709D01*
X135712531Y-117672680D01*
X135862854Y-117823003D01*
X136034820Y-117947942D01*
X136034822Y-117947943D01*
X136034825Y-117947945D01*
X136224229Y-118044451D01*
X136426398Y-118110140D01*
X136636354Y-118143394D01*
X136636355Y-118143394D01*
X136848927Y-118143394D01*
X136848928Y-118143394D01*
X137058884Y-118110140D01*
X137261053Y-118044451D01*
X137450457Y-117947945D01*
X137472430Y-117931980D01*
X137622427Y-117823003D01*
X137622429Y-117823000D01*
X137622433Y-117822998D01*
X137772745Y-117672686D01*
X137772747Y-117672682D01*
X137772750Y-117672680D01*
X137869765Y-117539148D01*
X137897692Y-117500710D01*
X137932032Y-117433314D01*
X137980006Y-117382517D01*
X138047827Y-117365722D01*
X138113962Y-117388259D01*
X138130198Y-117401927D01*
X143208791Y-122480520D01*
X143208793Y-122480521D01*
X143208797Y-122480524D01*
X143345716Y-122559573D01*
X143345723Y-122559577D01*
X143498450Y-122600501D01*
X143498452Y-122600501D01*
X143664161Y-122600501D01*
X143664177Y-122600500D01*
X146672152Y-122600500D01*
X146739191Y-122620185D01*
X146784946Y-122672989D01*
X146793769Y-122700308D01*
X146820261Y-122833491D01*
X146820264Y-122833501D01*
X146880602Y-122979172D01*
X146880609Y-122979185D01*
X146968210Y-123110288D01*
X146968213Y-123110292D01*
X147079707Y-123221786D01*
X147079711Y-123221789D01*
X147210814Y-123309390D01*
X147210827Y-123309397D01*
X147356498Y-123369735D01*
X147356503Y-123369737D01*
X147511153Y-123400499D01*
X147511156Y-123400500D01*
X147511158Y-123400500D01*
X147668844Y-123400500D01*
X147668845Y-123400499D01*
X147823497Y-123369737D01*
X147969179Y-123309394D01*
X147974496Y-123305841D01*
X148100875Y-123221398D01*
X148167553Y-123200520D01*
X148169766Y-123200500D01*
X163515235Y-123200500D01*
X163515251Y-123200501D01*
X163522847Y-123200501D01*
X163680958Y-123200501D01*
X163680961Y-123200501D01*
X163833689Y-123159577D01*
X163883808Y-123130639D01*
X163970620Y-123080520D01*
X164082424Y-122968716D01*
X164082424Y-122968714D01*
X164092632Y-122958507D01*
X164092633Y-122958504D01*
X168110060Y-118941078D01*
X168171381Y-118907595D01*
X168236055Y-118910829D01*
X168250367Y-118915480D01*
X168452549Y-118947503D01*
X168452550Y-118947503D01*
X168657252Y-118947503D01*
X168657253Y-118947503D01*
X168859435Y-118915480D01*
X169054120Y-118852223D01*
X169236511Y-118759290D01*
X169393734Y-118645062D01*
X169402114Y-118638974D01*
X169402116Y-118638971D01*
X169402120Y-118638969D01*
X169546867Y-118494222D01*
X169546869Y-118494218D01*
X169546872Y-118494216D01*
X169656738Y-118342996D01*
X169667188Y-118328613D01*
X169760121Y-118146222D01*
X169823378Y-117951537D01*
X169855401Y-117749355D01*
X169855401Y-117544651D01*
X169849435Y-117506984D01*
X169823378Y-117342468D01*
X169791040Y-117242944D01*
X169789045Y-117173103D01*
X169825125Y-117113270D01*
X169887826Y-117082441D01*
X169947290Y-117086694D01*
X170046530Y-117118940D01*
X170100952Y-117127559D01*
X170100952Y-116341713D01*
X170138655Y-116363482D01*
X170278542Y-116400964D01*
X170423362Y-116400964D01*
X170563249Y-116363482D01*
X170600952Y-116341713D01*
X170600952Y-117127558D01*
X170655373Y-117118940D01*
X170849983Y-117055706D01*
X171032301Y-116962811D01*
X171197846Y-116842534D01*
X171197847Y-116842534D01*
X171342534Y-116697847D01*
X171342534Y-116697846D01*
X171462811Y-116532301D01*
X171555707Y-116349981D01*
X171618942Y-116155365D01*
X171627561Y-116100952D01*
X170841714Y-116100952D01*
X170863482Y-116063249D01*
X170900964Y-115923362D01*
X170900964Y-115778542D01*
X170863482Y-115638655D01*
X170841714Y-115600952D01*
X171627561Y-115600952D01*
X171644691Y-115580895D01*
X171703198Y-115542701D01*
X171773066Y-115542202D01*
X171824092Y-115572232D01*
X171824474Y-115571807D01*
X171826572Y-115573691D01*
X171826662Y-115573744D01*
X171826947Y-115574029D01*
X171873630Y-115611649D01*
X171873631Y-115611649D01*
X171873633Y-115611651D01*
X172004543Y-115671436D01*
X172004544Y-115671436D01*
X172004546Y-115671437D01*
X172147003Y-115691918D01*
X172289460Y-115671437D01*
X172420376Y-115611649D01*
X172467059Y-115574030D01*
X173666131Y-114374957D01*
X173703751Y-114328274D01*
X173763539Y-114197358D01*
X173784020Y-114054901D01*
X173763539Y-113912444D01*
X173727668Y-113833899D01*
X173703752Y-113781530D01*
X173703751Y-113781529D01*
X173703751Y-113781528D01*
X173666132Y-113734845D01*
X173666127Y-113734840D01*
X173666123Y-113734835D01*
X172467066Y-112535780D01*
X172467059Y-112535773D01*
X172420376Y-112498153D01*
X172420374Y-112498152D01*
X172420372Y-112498150D01*
X172289462Y-112438365D01*
X172289458Y-112438364D01*
X172147003Y-112417884D01*
X172004547Y-112438364D01*
X172004543Y-112438365D01*
X171873632Y-112498151D01*
X171826937Y-112535780D01*
X170627882Y-113734837D01*
X170627876Y-113734844D01*
X170590254Y-113781529D01*
X170590252Y-113781531D01*
X170530467Y-113912441D01*
X170530466Y-113912445D01*
X170509986Y-114054901D01*
X170530466Y-114197356D01*
X170530467Y-114197360D01*
X170590253Y-114328271D01*
X170590254Y-114328272D01*
X170590255Y-114328274D01*
X170627874Y-114374957D01*
X170627877Y-114374960D01*
X170627882Y-114374966D01*
X170628157Y-114375241D01*
X170628201Y-114375322D01*
X170630103Y-114377440D01*
X170629602Y-114377889D01*
X170661642Y-114436564D01*
X170656658Y-114506256D01*
X170621009Y-114557211D01*
X170600952Y-114574341D01*
X170600952Y-115360190D01*
X170563249Y-115338422D01*
X170423362Y-115300940D01*
X170278542Y-115300940D01*
X170138655Y-115338422D01*
X170100952Y-115360190D01*
X170100952Y-114574342D01*
X170046538Y-114582961D01*
X169851922Y-114646196D01*
X169669602Y-114739092D01*
X169504057Y-114859369D01*
X169504056Y-114859369D01*
X169359369Y-115004056D01*
X169359369Y-115004057D01*
X169239092Y-115169602D01*
X169146196Y-115351922D01*
X169082961Y-115546538D01*
X169074343Y-115600952D01*
X169860190Y-115600952D01*
X169838422Y-115638655D01*
X169800940Y-115778542D01*
X169800940Y-115923362D01*
X169838422Y-116063249D01*
X169860190Y-116100952D01*
X169074343Y-116100952D01*
X169082961Y-116155365D01*
X169082961Y-116155366D01*
X169115209Y-116254614D01*
X169117204Y-116324455D01*
X169081124Y-116384288D01*
X169018423Y-116415116D01*
X168958960Y-116410863D01*
X168859437Y-116378526D01*
X168724647Y-116357177D01*
X168657253Y-116346503D01*
X168452549Y-116346503D01*
X168430590Y-116349981D01*
X168250366Y-116378525D01*
X168055677Y-116441784D01*
X167873287Y-116534718D01*
X167707687Y-116655031D01*
X167562929Y-116799789D01*
X167442616Y-116965389D01*
X167349682Y-117147779D01*
X167286423Y-117342468D01*
X167255273Y-117539148D01*
X167254401Y-117544651D01*
X167254401Y-117749355D01*
X167266065Y-117822998D01*
X167286424Y-117951538D01*
X167291073Y-117965848D01*
X167293066Y-118035690D01*
X167260822Y-118091844D01*
X163389488Y-121963181D01*
X163328165Y-121996666D01*
X163301807Y-121999500D01*
X157917848Y-121999500D01*
X157850809Y-121979815D01*
X157805054Y-121927011D01*
X157796231Y-121899692D01*
X157769738Y-121766508D01*
X157769737Y-121766507D01*
X157769737Y-121766503D01*
X157768533Y-121763596D01*
X157709397Y-121620827D01*
X157709390Y-121620814D01*
X157621789Y-121489711D01*
X157621786Y-121489707D01*
X157510292Y-121378213D01*
X157510288Y-121378210D01*
X157379185Y-121290609D01*
X157379172Y-121290602D01*
X157233501Y-121230264D01*
X157233489Y-121230261D01*
X157078845Y-121199500D01*
X157078842Y-121199500D01*
X156921158Y-121199500D01*
X156921155Y-121199500D01*
X156766510Y-121230261D01*
X156766498Y-121230264D01*
X156620827Y-121290602D01*
X156620814Y-121290609D01*
X156489125Y-121378602D01*
X156422447Y-121399480D01*
X156420234Y-121399500D01*
X143877605Y-121399500D01*
X143810566Y-121379815D01*
X143789924Y-121363181D01*
X142047609Y-119620866D01*
X140069358Y-117642616D01*
X140035874Y-117581294D01*
X140040858Y-117511602D01*
X140082730Y-117455669D01*
X140148194Y-117431252D01*
X140216467Y-117446104D01*
X140219040Y-117447549D01*
X140377695Y-117539149D01*
X141151894Y-117942171D01*
X141624777Y-118162680D01*
X141942947Y-118311045D01*
X142346139Y-118478053D01*
X142749334Y-118645062D01*
X143057419Y-118757195D01*
X143569520Y-118943584D01*
X144401948Y-119206048D01*
X145245032Y-119431952D01*
X146097167Y-119620866D01*
X146633275Y-119715396D01*
X146956731Y-119772430D01*
X147070657Y-119787428D01*
X147822090Y-119886356D01*
X148691593Y-119962428D01*
X149563588Y-120000500D01*
X150436412Y-120000500D01*
X151308407Y-119962428D01*
X152177910Y-119886356D01*
X153043268Y-119772430D01*
X153902833Y-119620866D01*
X154754968Y-119431952D01*
X155598052Y-119206048D01*
X156430480Y-118943584D01*
X157250668Y-118645061D01*
X158057053Y-118311045D01*
X158848101Y-117942173D01*
X159218502Y-117749355D01*
X159622304Y-117539149D01*
X159670017Y-117511602D01*
X160378194Y-117102735D01*
X161114328Y-116633767D01*
X161829304Y-116133135D01*
X162521762Y-115601793D01*
X162575721Y-115556516D01*
X162591798Y-115543026D01*
X162795981Y-115371696D01*
X163190385Y-115040752D01*
X163833899Y-114451080D01*
X164451080Y-113833899D01*
X165040752Y-113190385D01*
X165601793Y-112521762D01*
X166133135Y-111829304D01*
X166633767Y-111114328D01*
X167102735Y-110378194D01*
X167539148Y-109622306D01*
X167906237Y-108917133D01*
X167942171Y-108848105D01*
X168004570Y-108714290D01*
X168311045Y-108057053D01*
X168500533Y-107599589D01*
X168644118Y-107252946D01*
X168644118Y-107252945D01*
X168645060Y-107250671D01*
X168738442Y-106994104D01*
X168943584Y-106430480D01*
X169077124Y-106006947D01*
X172750000Y-106006947D01*
X172750000Y-106243052D01*
X172786934Y-106476247D01*
X172859897Y-106700802D01*
X172967087Y-106911174D01*
X173027338Y-106994104D01*
X173027340Y-106994105D01*
X173828274Y-106193171D01*
X173853963Y-106289044D01*
X173909916Y-106385956D01*
X173989044Y-106465084D01*
X174085956Y-106521037D01*
X174181828Y-106546725D01*
X173380893Y-107347658D01*
X173463828Y-107407914D01*
X173674197Y-107515102D01*
X173898752Y-107588065D01*
X173898751Y-107588065D01*
X174131948Y-107625000D01*
X174368052Y-107625000D01*
X174601247Y-107588065D01*
X174825802Y-107515102D01*
X175036163Y-107407918D01*
X175036169Y-107407914D01*
X175119104Y-107347658D01*
X175119105Y-107347658D01*
X174318171Y-106546725D01*
X174414044Y-106521037D01*
X174510956Y-106465084D01*
X174590084Y-106385956D01*
X174646037Y-106289044D01*
X174671725Y-106193171D01*
X175472658Y-106994105D01*
X175472658Y-106994104D01*
X175532914Y-106911169D01*
X175532918Y-106911163D01*
X175640102Y-106700802D01*
X175713065Y-106476247D01*
X175750000Y-106243052D01*
X175750000Y-106006947D01*
X175713065Y-105773752D01*
X175640102Y-105549197D01*
X175552939Y-105378129D01*
X175552938Y-105378127D01*
X175532916Y-105338830D01*
X175522855Y-105324983D01*
X177249500Y-105324983D01*
X177249500Y-106925001D01*
X177249501Y-106925018D01*
X177260000Y-107027796D01*
X177260001Y-107027799D01*
X177315185Y-107194331D01*
X177315186Y-107194334D01*
X177407288Y-107343656D01*
X177531344Y-107467712D01*
X177680666Y-107559814D01*
X177847203Y-107614999D01*
X177949991Y-107625500D01*
X179550008Y-107625499D01*
X179652797Y-107614999D01*
X179819334Y-107559814D01*
X179968656Y-107467712D01*
X180092712Y-107343656D01*
X180184814Y-107194334D01*
X180239999Y-107027797D01*
X180250500Y-106925009D01*
X180250499Y-105324992D01*
X180243440Y-105255893D01*
X180239999Y-105222203D01*
X180239998Y-105222200D01*
X180233452Y-105202447D01*
X180184814Y-105055666D01*
X180092712Y-104906344D01*
X179968656Y-104782288D01*
X179819334Y-104690186D01*
X179652797Y-104635001D01*
X179652795Y-104635000D01*
X179550010Y-104624500D01*
X177949998Y-104624500D01*
X177949981Y-104624501D01*
X177847203Y-104635000D01*
X177847200Y-104635001D01*
X177680668Y-104690185D01*
X177680663Y-104690187D01*
X177531342Y-104782289D01*
X177407289Y-104906342D01*
X177315187Y-105055663D01*
X177315185Y-105055668D01*
X177308449Y-105075996D01*
X177260001Y-105222203D01*
X177260001Y-105222204D01*
X177260000Y-105222204D01*
X177249500Y-105324983D01*
X175522855Y-105324983D01*
X175472658Y-105255894D01*
X175472658Y-105255893D01*
X174671725Y-106056827D01*
X174646037Y-105960956D01*
X174590084Y-105864044D01*
X174510956Y-105784916D01*
X174414044Y-105728963D01*
X174318172Y-105703274D01*
X175119105Y-104902340D01*
X175119104Y-104902338D01*
X175036174Y-104842087D01*
X174825802Y-104734897D01*
X174601247Y-104661934D01*
X174601248Y-104661934D01*
X174368052Y-104625000D01*
X174131948Y-104625000D01*
X173898752Y-104661934D01*
X173674197Y-104734897D01*
X173463830Y-104842084D01*
X173380894Y-104902340D01*
X174181828Y-105703274D01*
X174085956Y-105728963D01*
X173989044Y-105784916D01*
X173909916Y-105864044D01*
X173853963Y-105960956D01*
X173828274Y-106056828D01*
X173027340Y-105255894D01*
X172967084Y-105338830D01*
X172859897Y-105549197D01*
X172786934Y-105773752D01*
X172750000Y-106006947D01*
X169077124Y-106006947D01*
X169090417Y-105964787D01*
X169164772Y-105728963D01*
X169206048Y-105598052D01*
X169431952Y-104754968D01*
X169620866Y-103902833D01*
X169772430Y-103043268D01*
X169886356Y-102177910D01*
X169962428Y-101308407D01*
X170000500Y-100436412D01*
X170000500Y-99563588D01*
X169962428Y-98691593D01*
X169886356Y-97822090D01*
X169772430Y-96956732D01*
X169620866Y-96097167D01*
X169431952Y-95245032D01*
X169206048Y-94401948D01*
X169081490Y-94006902D01*
X172749500Y-94006902D01*
X172749500Y-94243097D01*
X172786446Y-94476368D01*
X172859433Y-94700996D01*
X172942051Y-94863141D01*
X172966657Y-94911433D01*
X173105483Y-95102510D01*
X173272490Y-95269517D01*
X173463567Y-95408343D01*
X173562991Y-95459002D01*
X173674003Y-95515566D01*
X173674005Y-95515566D01*
X173674008Y-95515568D01*
X173793000Y-95554231D01*
X173898631Y-95588553D01*
X174131903Y-95625500D01*
X174131908Y-95625500D01*
X174368097Y-95625500D01*
X174601368Y-95588553D01*
X174825992Y-95515568D01*
X175036433Y-95408343D01*
X175227510Y-95269517D01*
X175394517Y-95102510D01*
X175533343Y-94911433D01*
X175640568Y-94700992D01*
X175713553Y-94476368D01*
X175725340Y-94401946D01*
X175750500Y-94243097D01*
X175750500Y-94006902D01*
X177249500Y-94006902D01*
X177249500Y-94243097D01*
X177286446Y-94476368D01*
X177359433Y-94700996D01*
X177442051Y-94863141D01*
X177466657Y-94911433D01*
X177605483Y-95102510D01*
X177772490Y-95269517D01*
X177963567Y-95408343D01*
X178062991Y-95459002D01*
X178174003Y-95515566D01*
X178174005Y-95515566D01*
X178174008Y-95515568D01*
X178293000Y-95554231D01*
X178398631Y-95588553D01*
X178631903Y-95625500D01*
X178631908Y-95625500D01*
X178868097Y-95625500D01*
X179101368Y-95588553D01*
X179325992Y-95515568D01*
X179536433Y-95408343D01*
X179727510Y-95269517D01*
X179894517Y-95102510D01*
X180033343Y-94911433D01*
X180140568Y-94700992D01*
X180213553Y-94476368D01*
X180225340Y-94401946D01*
X180250500Y-94243097D01*
X180250500Y-94006902D01*
X180213553Y-93773631D01*
X180171600Y-93644514D01*
X180140568Y-93549008D01*
X180140566Y-93549005D01*
X180140566Y-93549003D01*
X180033342Y-93338566D01*
X179995465Y-93286433D01*
X179894517Y-93147490D01*
X179727510Y-92980483D01*
X179536433Y-92841657D01*
X179325996Y-92734433D01*
X179101368Y-92661446D01*
X178868097Y-92624500D01*
X178868092Y-92624500D01*
X178631908Y-92624500D01*
X178631903Y-92624500D01*
X178398631Y-92661446D01*
X178174003Y-92734433D01*
X177963566Y-92841657D01*
X177854550Y-92920862D01*
X177772490Y-92980483D01*
X177772488Y-92980485D01*
X177772487Y-92980485D01*
X177605485Y-93147487D01*
X177605485Y-93147488D01*
X177605483Y-93147490D01*
X177545862Y-93229550D01*
X177466657Y-93338566D01*
X177359433Y-93549003D01*
X177286446Y-93773631D01*
X177249500Y-94006902D01*
X175750500Y-94006902D01*
X175713553Y-93773631D01*
X175671600Y-93644514D01*
X175640568Y-93549008D01*
X175640566Y-93549005D01*
X175640566Y-93549003D01*
X175533342Y-93338566D01*
X175495465Y-93286433D01*
X175394517Y-93147490D01*
X175227510Y-92980483D01*
X175036433Y-92841657D01*
X174825996Y-92734433D01*
X174601368Y-92661446D01*
X174368097Y-92624500D01*
X174368092Y-92624500D01*
X174131908Y-92624500D01*
X174131903Y-92624500D01*
X173898631Y-92661446D01*
X173674003Y-92734433D01*
X173463566Y-92841657D01*
X173354550Y-92920862D01*
X173272490Y-92980483D01*
X173272488Y-92980485D01*
X173272487Y-92980485D01*
X173105485Y-93147487D01*
X173105485Y-93147488D01*
X173105483Y-93147490D01*
X173045862Y-93229550D01*
X172966657Y-93338566D01*
X172859433Y-93549003D01*
X172786446Y-93773631D01*
X172749500Y-94006902D01*
X169081490Y-94006902D01*
X168943584Y-93569520D01*
X168682199Y-92851368D01*
X168645062Y-92749334D01*
X168311044Y-91942945D01*
X167942171Y-91151894D01*
X167539149Y-90377695D01*
X167362043Y-90070940D01*
X167102735Y-89621806D01*
X166633767Y-88885672D01*
X166133135Y-88170696D01*
X165701645Y-87608367D01*
X165601792Y-87478236D01*
X165208101Y-87009054D01*
X165040752Y-86809615D01*
X164451080Y-86166101D01*
X163833899Y-85548920D01*
X163190385Y-84959248D01*
X162915645Y-84728714D01*
X162521763Y-84398207D01*
X161829313Y-83866872D01*
X161829314Y-83866872D01*
X161829304Y-83866865D01*
X161114328Y-83366233D01*
X160378194Y-82897265D01*
X160235812Y-82815060D01*
X159622304Y-82460850D01*
X158848105Y-82057828D01*
X158057054Y-81688955D01*
X157250665Y-81354937D01*
X156430486Y-81056418D01*
X155598053Y-80793952D01*
X154754969Y-80568048D01*
X153902819Y-80379131D01*
X153043268Y-80227569D01*
X152177910Y-80113644D01*
X151308411Y-80037572D01*
X150436412Y-79999500D01*
X149563588Y-79999500D01*
X148691588Y-80037572D01*
X147822089Y-80113644D01*
X146956731Y-80227569D01*
X146097180Y-80379131D01*
X145245030Y-80568048D01*
X144401946Y-80793952D01*
X143569513Y-81056418D01*
X142749334Y-81354937D01*
X141942945Y-81688955D01*
X141151894Y-82057828D01*
X140377695Y-82460850D01*
X139621814Y-82897260D01*
X138885663Y-83366238D01*
X138244633Y-83815093D01*
X138178427Y-83837420D01*
X138110660Y-83820410D01*
X138062847Y-83769462D01*
X138050169Y-83700752D01*
X138063025Y-83657223D01*
X138063931Y-83655445D01*
X138111982Y-83561140D01*
X138177671Y-83358971D01*
X138210925Y-83149015D01*
X138210925Y-82936441D01*
X138177671Y-82726485D01*
X138111982Y-82524316D01*
X138015476Y-82334912D01*
X138015474Y-82334909D01*
X138015473Y-82334907D01*
X137890534Y-82162941D01*
X137740211Y-82012618D01*
X137568245Y-81887679D01*
X137378839Y-81791172D01*
X137378838Y-81791171D01*
X137378837Y-81791171D01*
X137176668Y-81725482D01*
X137176666Y-81725481D01*
X137176665Y-81725481D01*
X137015382Y-81699936D01*
X136966712Y-81692228D01*
X136754138Y-81692228D01*
X136705467Y-81699936D01*
X136544185Y-81725481D01*
X136342010Y-81791172D01*
X136152604Y-81887679D01*
X135980638Y-82012618D01*
X135830315Y-82162941D01*
X135705376Y-82334907D01*
X135608869Y-82524313D01*
X135543178Y-82726488D01*
X135509925Y-82936441D01*
X135509925Y-83149014D01*
X135541750Y-83349949D01*
X135532795Y-83419243D01*
X135487799Y-83472695D01*
X135421048Y-83493334D01*
X135399880Y-83491820D01*
X135198945Y-83459996D01*
X134986371Y-83459996D01*
X134937700Y-83467704D01*
X134776418Y-83493249D01*
X134574243Y-83558940D01*
X134384837Y-83655447D01*
X134212871Y-83780386D01*
X134062548Y-83930709D01*
X133937609Y-84102675D01*
X133841102Y-84292081D01*
X133775411Y-84494256D01*
X133742158Y-84704209D01*
X133742158Y-84916783D01*
X133742157Y-84916783D01*
X133773982Y-85117717D01*
X133765027Y-85187010D01*
X133720031Y-85240462D01*
X133653279Y-85261101D01*
X133632112Y-85259587D01*
X133431178Y-85227763D01*
X133218604Y-85227763D01*
X133169933Y-85235471D01*
X133008651Y-85261016D01*
X132806476Y-85326707D01*
X132617070Y-85423214D01*
X132445104Y-85548153D01*
X132294781Y-85698476D01*
X132169842Y-85870442D01*
X132073335Y-86059848D01*
X132007644Y-86262023D01*
X131974391Y-86471976D01*
X131974391Y-86684549D01*
X132007645Y-86894507D01*
X132007645Y-86894510D01*
X132021382Y-86936786D01*
X132023377Y-87006627D01*
X131991132Y-87062785D01*
X129530286Y-89523632D01*
X129418481Y-89635436D01*
X129418479Y-89635439D01*
X129368361Y-89722248D01*
X129368359Y-89722250D01*
X129339425Y-89772363D01*
X129339424Y-89772364D01*
X129339423Y-89772369D01*
X129298499Y-89925097D01*
X129298499Y-89925099D01*
X129298499Y-90093200D01*
X129298500Y-90093213D01*
X129298500Y-110395016D01*
X129278815Y-110462055D01*
X129226011Y-110507810D01*
X129156853Y-110517754D01*
X129093297Y-110488729D01*
X129086819Y-110482697D01*
X127156245Y-108552124D01*
X127122760Y-108490801D01*
X127127744Y-108421109D01*
X127129354Y-108417016D01*
X127159856Y-108343379D01*
X127190619Y-108188724D01*
X127190619Y-108031040D01*
X127190619Y-108031037D01*
X127190618Y-108031035D01*
X127159857Y-107876392D01*
X127159856Y-107876385D01*
X127159854Y-107876380D01*
X127099516Y-107730709D01*
X127099509Y-107730696D01*
X127011908Y-107599593D01*
X127011905Y-107599589D01*
X126900411Y-107488095D01*
X126900407Y-107488092D01*
X126769304Y-107400491D01*
X126769291Y-107400484D01*
X126623620Y-107340146D01*
X126623608Y-107340143D01*
X126468964Y-107309382D01*
X126468961Y-107309382D01*
X126311277Y-107309382D01*
X126311274Y-107309382D01*
X126156629Y-107340143D01*
X126156617Y-107340146D01*
X126010946Y-107400484D01*
X126010933Y-107400491D01*
X125879830Y-107488092D01*
X125879826Y-107488095D01*
X125768332Y-107599589D01*
X125768329Y-107599593D01*
X125680728Y-107730696D01*
X125680721Y-107730709D01*
X125620383Y-107876380D01*
X125620380Y-107876392D01*
X125589619Y-108031035D01*
X116963986Y-108031035D01*
X116831540Y-107487537D01*
X116830628Y-107483496D01*
X116595254Y-106350817D01*
X116594464Y-106346661D01*
X116546599Y-106069048D01*
X116397898Y-105206603D01*
X116397255Y-105202447D01*
X116239726Y-104056343D01*
X116239232Y-104052230D01*
X116203023Y-103700013D01*
X118250000Y-103700013D01*
X118250000Y-104250000D01*
X119403590Y-104250000D01*
X119353963Y-104335956D01*
X119325000Y-104444048D01*
X119325000Y-104555952D01*
X119353963Y-104664044D01*
X119403590Y-104750000D01*
X118250001Y-104750000D01*
X118250001Y-105299986D01*
X118260494Y-105402697D01*
X118315641Y-105569119D01*
X118315643Y-105569124D01*
X118407684Y-105718345D01*
X118531654Y-105842315D01*
X118680875Y-105934356D01*
X118680880Y-105934358D01*
X118847302Y-105989505D01*
X118847309Y-105989506D01*
X118950019Y-105999999D01*
X119499999Y-105999999D01*
X119500000Y-105999998D01*
X119500000Y-104846409D01*
X119585956Y-104896037D01*
X119694048Y-104925000D01*
X119805952Y-104925000D01*
X119914044Y-104896037D01*
X120000000Y-104846409D01*
X120000000Y-105999999D01*
X120549972Y-105999999D01*
X120549986Y-105999998D01*
X120652697Y-105989505D01*
X120819119Y-105934358D01*
X120819124Y-105934356D01*
X120968345Y-105842315D01*
X121092315Y-105718345D01*
X121184356Y-105569124D01*
X121184358Y-105569119D01*
X121239505Y-105402697D01*
X121239506Y-105402690D01*
X121249999Y-105299986D01*
X121250000Y-105299973D01*
X121250000Y-104750000D01*
X120096410Y-104750000D01*
X120146037Y-104664044D01*
X120175000Y-104555952D01*
X120175000Y-104444048D01*
X120158348Y-104381902D01*
X122749500Y-104381902D01*
X122749500Y-104618097D01*
X122786446Y-104851368D01*
X122859433Y-105075996D01*
X122966657Y-105286433D01*
X123105483Y-105477510D01*
X123272490Y-105644517D01*
X123463567Y-105783343D01*
X123562991Y-105834002D01*
X123674003Y-105890566D01*
X123674005Y-105890566D01*
X123674008Y-105890568D01*
X123794412Y-105929689D01*
X123898631Y-105963553D01*
X124131903Y-106000500D01*
X124131908Y-106000500D01*
X124368097Y-106000500D01*
X124601368Y-105963553D01*
X124609361Y-105960956D01*
X124825992Y-105890568D01*
X125036433Y-105783343D01*
X125227510Y-105644517D01*
X125394517Y-105477510D01*
X125533343Y-105286433D01*
X125640568Y-105075992D01*
X125713553Y-104851368D01*
X125735069Y-104715523D01*
X125750500Y-104618097D01*
X125750500Y-104381902D01*
X125713553Y-104148631D01*
X125640566Y-103924003D01*
X125533342Y-103713566D01*
X125523495Y-103700013D01*
X125394517Y-103522490D01*
X125227510Y-103355483D01*
X125036433Y-103216657D01*
X124825996Y-103109433D01*
X124601368Y-103036446D01*
X124368097Y-102999500D01*
X124368092Y-102999500D01*
X124131908Y-102999500D01*
X124131903Y-102999500D01*
X123898631Y-103036446D01*
X123674003Y-103109433D01*
X123463566Y-103216657D01*
X123354550Y-103295862D01*
X123272490Y-103355483D01*
X123272488Y-103355485D01*
X123272487Y-103355485D01*
X123105485Y-103522487D01*
X123105485Y-103522488D01*
X123105483Y-103522490D01*
X123051129Y-103597302D01*
X122966657Y-103713566D01*
X122859433Y-103924003D01*
X122786446Y-104148631D01*
X122749500Y-104381902D01*
X120158348Y-104381902D01*
X120146037Y-104335956D01*
X120096410Y-104250000D01*
X121249999Y-104250000D01*
X121249999Y-103700028D01*
X121249998Y-103700013D01*
X121239505Y-103597302D01*
X121184358Y-103430880D01*
X121184356Y-103430875D01*
X121092315Y-103281654D01*
X120968345Y-103157684D01*
X120819124Y-103065643D01*
X120819119Y-103065641D01*
X120652697Y-103010494D01*
X120652690Y-103010493D01*
X120549986Y-103000000D01*
X120000000Y-103000000D01*
X120000000Y-104153590D01*
X119914044Y-104103963D01*
X119805952Y-104075000D01*
X119694048Y-104075000D01*
X119585956Y-104103963D01*
X119500000Y-104153590D01*
X119500000Y-103000000D01*
X118950028Y-103000000D01*
X118950012Y-103000001D01*
X118847302Y-103010494D01*
X118680880Y-103065641D01*
X118680875Y-103065643D01*
X118531654Y-103157684D01*
X118407684Y-103281654D01*
X118315643Y-103430875D01*
X118315641Y-103430880D01*
X118260494Y-103597302D01*
X118260493Y-103597309D01*
X118250000Y-103700013D01*
X116203023Y-103700013D01*
X116120922Y-102901386D01*
X116120563Y-102897185D01*
X116071363Y-102177910D01*
X116041614Y-101743000D01*
X116041402Y-101738874D01*
X116001905Y-100582644D01*
X116001833Y-100578411D01*
X116001833Y-100400990D01*
X116021518Y-100333951D01*
X116074322Y-100288196D01*
X116143480Y-100278252D01*
X116207036Y-100307277D01*
X116240394Y-100353538D01*
X116290251Y-100473907D01*
X116290258Y-100473920D01*
X116399747Y-100637781D01*
X116399750Y-100637785D01*
X116539101Y-100777136D01*
X116539105Y-100777139D01*
X116702966Y-100886628D01*
X116702979Y-100886635D01*
X116885047Y-100962049D01*
X116885052Y-100962051D01*
X116885056Y-100962051D01*
X116885057Y-100962052D01*
X117078343Y-101000500D01*
X117078346Y-101000500D01*
X117275430Y-101000500D01*
X117405469Y-100974632D01*
X117468722Y-100962051D01*
X117650801Y-100886632D01*
X117814669Y-100777139D01*
X117954026Y-100637782D01*
X118063519Y-100473914D01*
X118138938Y-100291835D01*
X118177387Y-100098543D01*
X123176388Y-100098543D01*
X123214836Y-100291829D01*
X123214839Y-100291839D01*
X123290253Y-100473907D01*
X123290260Y-100473920D01*
X123399749Y-100637781D01*
X123399752Y-100637785D01*
X123539103Y-100777136D01*
X123539107Y-100777139D01*
X123702968Y-100886628D01*
X123702981Y-100886635D01*
X123885049Y-100962049D01*
X123885054Y-100962051D01*
X123885058Y-100962051D01*
X123885059Y-100962052D01*
X124078345Y-101000500D01*
X124078348Y-101000500D01*
X124275432Y-101000500D01*
X124405471Y-100974632D01*
X124468724Y-100962051D01*
X124650803Y-100886632D01*
X124814671Y-100777139D01*
X124954028Y-100637782D01*
X125063521Y-100473914D01*
X125138940Y-100291835D01*
X125177389Y-100098541D01*
X125177389Y-99901459D01*
X125177389Y-99901456D01*
X125138941Y-99708170D01*
X125138940Y-99708169D01*
X125138940Y-99708165D01*
X125137899Y-99705651D01*
X125063524Y-99526092D01*
X125063517Y-99526079D01*
X124954028Y-99362218D01*
X124954025Y-99362214D01*
X124814674Y-99222863D01*
X124814670Y-99222860D01*
X124650809Y-99113371D01*
X124650796Y-99113364D01*
X124468728Y-99037950D01*
X124468718Y-99037947D01*
X124275432Y-98999500D01*
X124275430Y-98999500D01*
X124078348Y-98999500D01*
X124078346Y-98999500D01*
X123885059Y-99037947D01*
X123885049Y-99037950D01*
X123702981Y-99113364D01*
X123702968Y-99113371D01*
X123539107Y-99222860D01*
X123539103Y-99222863D01*
X123399752Y-99362214D01*
X123399749Y-99362218D01*
X123290260Y-99526079D01*
X123290253Y-99526092D01*
X123214839Y-99708160D01*
X123214836Y-99708170D01*
X123176389Y-99901456D01*
X123176389Y-99901459D01*
X123176389Y-100098541D01*
X123176389Y-100098543D01*
X123176388Y-100098543D01*
X118177387Y-100098543D01*
X118177387Y-100098541D01*
X118177387Y-99901459D01*
X118177387Y-99901456D01*
X118138939Y-99708170D01*
X118138938Y-99708169D01*
X118138938Y-99708165D01*
X118137897Y-99705651D01*
X118063522Y-99526092D01*
X118063515Y-99526079D01*
X117954026Y-99362218D01*
X117954023Y-99362214D01*
X117814672Y-99222863D01*
X117814668Y-99222860D01*
X117650807Y-99113371D01*
X117650794Y-99113364D01*
X117468726Y-99037950D01*
X117468716Y-99037947D01*
X117275430Y-98999500D01*
X117275428Y-98999500D01*
X117078346Y-98999500D01*
X117078344Y-98999500D01*
X116885057Y-99037947D01*
X116885047Y-99037950D01*
X116702979Y-99113364D01*
X116702966Y-99113371D01*
X116539105Y-99222860D01*
X116539101Y-99222863D01*
X116399750Y-99362214D01*
X116399747Y-99362218D01*
X116290258Y-99526079D01*
X116290251Y-99526092D01*
X116240394Y-99646461D01*
X116233322Y-99655235D01*
X116230148Y-99666048D01*
X116211793Y-99681951D01*
X116196553Y-99700865D01*
X116185859Y-99704424D01*
X116177344Y-99711803D01*
X116153304Y-99715259D01*
X116130259Y-99722930D01*
X116119340Y-99720143D01*
X116108186Y-99721747D01*
X116086092Y-99711657D01*
X116062560Y-99705651D01*
X116054881Y-99697403D01*
X116044630Y-99692722D01*
X116031499Y-99672289D01*
X116014949Y-99654514D01*
X116011967Y-99641898D01*
X116006856Y-99633944D01*
X116001833Y-99599009D01*
X116001833Y-99421588D01*
X116001905Y-99417355D01*
X116041402Y-98261122D01*
X116041614Y-98257002D01*
X116120564Y-97102790D01*
X116120924Y-97098595D01*
X116135508Y-96956731D01*
X116239233Y-95947762D01*
X116239725Y-95943663D01*
X116397260Y-94797515D01*
X116397897Y-94793405D01*
X116594466Y-93653324D01*
X116595255Y-93649178D01*
X116659801Y-93338566D01*
X116830630Y-92516491D01*
X116831537Y-92512475D01*
X116863357Y-92381902D01*
X118249500Y-92381902D01*
X118249500Y-92618097D01*
X118286446Y-92851368D01*
X118359433Y-93075996D01*
X118466657Y-93286433D01*
X118605483Y-93477510D01*
X118772490Y-93644517D01*
X118963567Y-93783343D01*
X119062991Y-93834002D01*
X119174003Y-93890566D01*
X119174005Y-93890566D01*
X119174008Y-93890568D01*
X119294412Y-93929689D01*
X119398631Y-93963553D01*
X119631903Y-94000500D01*
X119631908Y-94000500D01*
X119868097Y-94000500D01*
X120101368Y-93963553D01*
X120325992Y-93890568D01*
X120536433Y-93783343D01*
X120727510Y-93644517D01*
X120894517Y-93477510D01*
X121033343Y-93286433D01*
X121140568Y-93075992D01*
X121213553Y-92851368D01*
X121215091Y-92841657D01*
X121250500Y-92618097D01*
X121250500Y-92381902D01*
X122749500Y-92381902D01*
X122749500Y-92618097D01*
X122786446Y-92851368D01*
X122859433Y-93075996D01*
X122966657Y-93286433D01*
X123105483Y-93477510D01*
X123272490Y-93644517D01*
X123463567Y-93783343D01*
X123562991Y-93834002D01*
X123674003Y-93890566D01*
X123674005Y-93890566D01*
X123674008Y-93890568D01*
X123794412Y-93929689D01*
X123898631Y-93963553D01*
X124131903Y-94000500D01*
X124131908Y-94000500D01*
X124368097Y-94000500D01*
X124601368Y-93963553D01*
X124825992Y-93890568D01*
X125036433Y-93783343D01*
X125227510Y-93644517D01*
X125394517Y-93477510D01*
X125533343Y-93286433D01*
X125640568Y-93075992D01*
X125713553Y-92851368D01*
X125715091Y-92841657D01*
X125750500Y-92618097D01*
X125750500Y-92381902D01*
X125713553Y-92148631D01*
X125679689Y-92044412D01*
X125640568Y-91924008D01*
X125640566Y-91924005D01*
X125640566Y-91924003D01*
X125533342Y-91713566D01*
X125394517Y-91522490D01*
X125227510Y-91355483D01*
X125036433Y-91216657D01*
X124825996Y-91109433D01*
X124601368Y-91036446D01*
X124368097Y-90999500D01*
X124368092Y-90999500D01*
X124131908Y-90999500D01*
X124131903Y-90999500D01*
X123898631Y-91036446D01*
X123674003Y-91109433D01*
X123463566Y-91216657D01*
X123354550Y-91295862D01*
X123272490Y-91355483D01*
X123272488Y-91355485D01*
X123272487Y-91355485D01*
X123105485Y-91522487D01*
X123105485Y-91522488D01*
X123105483Y-91522490D01*
X123051540Y-91596736D01*
X122966657Y-91713566D01*
X122859433Y-91924003D01*
X122786446Y-92148631D01*
X122749500Y-92381902D01*
X121250500Y-92381902D01*
X121213553Y-92148631D01*
X121179689Y-92044412D01*
X121140568Y-91924008D01*
X121140566Y-91924005D01*
X121140566Y-91924003D01*
X121033342Y-91713566D01*
X120894517Y-91522490D01*
X120727510Y-91355483D01*
X120536433Y-91216657D01*
X120325996Y-91109433D01*
X120101368Y-91036446D01*
X119868097Y-90999500D01*
X119868092Y-90999500D01*
X119631908Y-90999500D01*
X119631903Y-90999500D01*
X119398631Y-91036446D01*
X119174003Y-91109433D01*
X118963566Y-91216657D01*
X118854550Y-91295862D01*
X118772490Y-91355483D01*
X118772488Y-91355485D01*
X118772487Y-91355485D01*
X118605485Y-91522487D01*
X118605485Y-91522488D01*
X118605483Y-91522490D01*
X118551540Y-91596736D01*
X118466657Y-91713566D01*
X118359433Y-91924003D01*
X118286446Y-92148631D01*
X118249500Y-92381902D01*
X116863357Y-92381902D01*
X117105459Y-91388425D01*
X117106500Y-91384448D01*
X117418640Y-90270407D01*
X117419846Y-90266371D01*
X117429101Y-90237211D01*
X117769820Y-89163695D01*
X117771147Y-89159749D01*
X118158570Y-88069647D01*
X118160034Y-88065742D01*
X118584441Y-86989522D01*
X118586061Y-86985610D01*
X118600225Y-86953003D01*
X119046946Y-85924545D01*
X119048695Y-85920702D01*
X119154383Y-85698471D01*
X119545563Y-84875935D01*
X119547390Y-84872256D01*
X120079659Y-83845026D01*
X120081630Y-83841375D01*
X120465242Y-83159122D01*
X124501312Y-83159122D01*
X124501312Y-83421311D01*
X124535532Y-83681231D01*
X124603391Y-83934482D01*
X124703713Y-84176684D01*
X124703721Y-84176700D01*
X124834800Y-84403733D01*
X124834811Y-84403749D01*
X124994403Y-84611735D01*
X125016387Y-84633718D01*
X125723705Y-83926400D01*
X125724554Y-83927670D01*
X126075991Y-84279107D01*
X126077258Y-84279953D01*
X125369941Y-84987272D01*
X125369941Y-84987274D01*
X125391917Y-85009250D01*
X125391924Y-85009256D01*
X125599911Y-85168849D01*
X125599927Y-85168860D01*
X125826960Y-85299939D01*
X125826976Y-85299947D01*
X126069178Y-85400269D01*
X126322429Y-85468128D01*
X126582349Y-85502348D01*
X126582364Y-85502349D01*
X126844524Y-85502349D01*
X126844538Y-85502348D01*
X127104458Y-85468128D01*
X127357709Y-85400269D01*
X127599911Y-85299947D01*
X127599927Y-85299939D01*
X127826974Y-85168852D01*
X127939809Y-85082269D01*
X127939809Y-85082266D01*
X127222471Y-84364929D01*
X127350914Y-84279107D01*
X127490202Y-84139819D01*
X127576024Y-84011376D01*
X128293361Y-84728714D01*
X128293364Y-84728714D01*
X128379947Y-84615879D01*
X128511034Y-84388832D01*
X128511042Y-84388816D01*
X128611364Y-84146614D01*
X128679223Y-83893363D01*
X128713443Y-83633443D01*
X128713444Y-83633429D01*
X128713444Y-83371268D01*
X128713443Y-83371254D01*
X128679223Y-83111334D01*
X128611364Y-82858083D01*
X128511042Y-82615881D01*
X128511034Y-82615865D01*
X128379955Y-82388832D01*
X128379944Y-82388816D01*
X128220352Y-82180830D01*
X128198368Y-82158846D01*
X127491049Y-82866163D01*
X127490202Y-82864896D01*
X127138765Y-82513459D01*
X127137496Y-82512611D01*
X127844814Y-81805292D01*
X127822830Y-81783308D01*
X127614844Y-81623716D01*
X127614828Y-81623705D01*
X127387795Y-81492626D01*
X127387779Y-81492618D01*
X127145577Y-81392296D01*
X126892326Y-81324437D01*
X126632406Y-81290217D01*
X126370217Y-81290217D01*
X126110297Y-81324437D01*
X125857046Y-81392296D01*
X125614844Y-81492618D01*
X125614828Y-81492626D01*
X125387795Y-81623705D01*
X125387778Y-81623716D01*
X125274945Y-81710296D01*
X125274945Y-81710297D01*
X125992284Y-82427635D01*
X125863841Y-82513459D01*
X125724554Y-82652746D01*
X125638730Y-82781188D01*
X124921392Y-82063850D01*
X124921391Y-82063850D01*
X124834811Y-82176683D01*
X124834800Y-82176700D01*
X124703721Y-82403733D01*
X124703713Y-82403749D01*
X124603391Y-82645951D01*
X124535532Y-82899202D01*
X124501312Y-83159122D01*
X120465242Y-83159122D01*
X120648647Y-82832937D01*
X120650776Y-82829299D01*
X121251846Y-81840881D01*
X121254096Y-81837319D01*
X121349262Y-81692228D01*
X121888610Y-80869924D01*
X121890946Y-80866493D01*
X122558110Y-79921336D01*
X122560543Y-79918011D01*
X123259602Y-78996164D01*
X123262205Y-78992852D01*
X123992320Y-78095420D01*
X123994963Y-78092283D01*
X124755264Y-77220334D01*
X124758095Y-77217197D01*
X125547736Y-76371696D01*
X125550650Y-76368680D01*
X125831277Y-76088053D01*
X131572379Y-76088053D01*
X131572379Y-76350242D01*
X131606599Y-76610162D01*
X131674458Y-76863413D01*
X131774780Y-77105615D01*
X131774788Y-77105631D01*
X131905867Y-77332664D01*
X131905878Y-77332680D01*
X132065470Y-77540666D01*
X132087454Y-77562649D01*
X132794772Y-76855331D01*
X132795621Y-76856601D01*
X133147058Y-77208038D01*
X133148325Y-77208884D01*
X132441008Y-77916203D01*
X132441008Y-77916205D01*
X132462984Y-77938181D01*
X132462991Y-77938187D01*
X132670978Y-78097780D01*
X132670994Y-78097791D01*
X132898027Y-78228870D01*
X132898043Y-78228878D01*
X133140245Y-78329200D01*
X133393496Y-78397059D01*
X133653416Y-78431279D01*
X133653431Y-78431280D01*
X133915591Y-78431280D01*
X133915605Y-78431279D01*
X134175525Y-78397059D01*
X134428776Y-78329200D01*
X134670978Y-78228878D01*
X134670994Y-78228870D01*
X134898041Y-78097783D01*
X135010876Y-78011200D01*
X135010876Y-78011197D01*
X134293538Y-77293860D01*
X134421981Y-77208038D01*
X134561269Y-77068750D01*
X134647091Y-76940307D01*
X135364428Y-77657645D01*
X135364431Y-77657645D01*
X135451014Y-77544810D01*
X135582101Y-77317763D01*
X135582109Y-77317747D01*
X135682431Y-77075545D01*
X135750290Y-76822294D01*
X135784510Y-76562374D01*
X135784511Y-76562360D01*
X135784511Y-76300199D01*
X135784510Y-76300185D01*
X135750290Y-76040265D01*
X135682431Y-75787014D01*
X135582109Y-75544812D01*
X135582101Y-75544796D01*
X135451022Y-75317763D01*
X135451011Y-75317747D01*
X135291419Y-75109761D01*
X135269435Y-75087777D01*
X134562116Y-75795094D01*
X134561269Y-75793827D01*
X134209832Y-75442390D01*
X134208563Y-75441542D01*
X134915881Y-74734223D01*
X134893897Y-74712239D01*
X134685911Y-74552647D01*
X134685895Y-74552636D01*
X134458862Y-74421557D01*
X134458846Y-74421549D01*
X134216644Y-74321227D01*
X133963393Y-74253368D01*
X133703473Y-74219148D01*
X133441284Y-74219148D01*
X133181364Y-74253368D01*
X132928113Y-74321227D01*
X132685911Y-74421549D01*
X132685895Y-74421557D01*
X132458862Y-74552636D01*
X132458845Y-74552647D01*
X132346012Y-74639227D01*
X132346012Y-74639228D01*
X133063351Y-75356566D01*
X132934908Y-75442390D01*
X132795621Y-75581677D01*
X132709797Y-75710119D01*
X131992459Y-74992781D01*
X131992458Y-74992781D01*
X131905878Y-75105614D01*
X131905867Y-75105631D01*
X131774788Y-75332664D01*
X131774780Y-75332680D01*
X131674458Y-75574882D01*
X131606599Y-75828133D01*
X131572379Y-76088053D01*
X125831277Y-76088053D01*
X126368680Y-75550650D01*
X126371696Y-75547736D01*
X127217197Y-74758095D01*
X127220340Y-74755259D01*
X127244465Y-74734223D01*
X128092283Y-73994963D01*
X128095420Y-73992320D01*
X128992869Y-73262191D01*
X128996164Y-73259602D01*
X129918011Y-72560543D01*
X129921336Y-72558110D01*
X130866493Y-71890946D01*
X130869924Y-71888610D01*
X131837336Y-71254085D01*
X131840881Y-71251846D01*
X132829315Y-70650766D01*
X132832937Y-70648647D01*
X133841375Y-70081630D01*
X133845026Y-70079659D01*
X134872256Y-69547390D01*
X134875959Y-69545552D01*
X135920712Y-69048690D01*
X135924556Y-69046942D01*
X136985633Y-68586051D01*
X136989522Y-68584441D01*
X138065742Y-68160034D01*
X138069647Y-68158570D01*
X139159749Y-67771147D01*
X139163695Y-67769820D01*
X140266391Y-67419839D01*
X140270407Y-67418640D01*
X141384448Y-67106500D01*
X141388425Y-67105459D01*
X142512475Y-66831537D01*
X142516491Y-66830630D01*
X143649193Y-66595252D01*
X143653324Y-66594466D01*
X144793405Y-66397897D01*
X144797515Y-66397260D01*
X145943663Y-66239725D01*
X145947762Y-66239233D01*
X147098618Y-66120922D01*
X147102790Y-66120564D01*
X148257002Y-66041614D01*
X148261122Y-66041402D01*
X149417355Y-66001904D01*
X149421588Y-66001833D01*
X150578412Y-66001833D01*
X150582644Y-66001904D01*
G37*
%TD.AperFunction*%
%TD*%
M02*
