%TF.GenerationSoftware,KiCad,Pcbnew,9.0.6*%
%TF.CreationDate,2026-08-21T23:19:18+03:00*%
%TF.ProjectId,spymic,7370796d-6963-42e6-9b69-6361645f7063,rev?*%
%TF.SameCoordinates,Original*%
%TF.FileFunction,Copper,L1,Top*%
%TF.FilePolarity,Positive*%
%FSLAX46Y46*%
G04 Gerber Fmt 4.6, Leading zero omitted, Abs format (unit mm)*
G04 Created by KiCad (PCBNEW 9.0.6) date 2026-08-21 23:19:18*
%MOMM*%
%LPD*%
G01*
G04 APERTURE LIST*
G04 Aperture macros list*
%AMRoundRect*
0 Rectangle with rounded corners*
0 $1 Rounding radius*
0 $2 $3 $4 $5 $6 $7 $8 $9 X,Y pos of 4 corners*
0 Add a 4 corners polygon primitive as box body*
4,1,4,$2,$3,$4,$5,$6,$7,$8,$9,$2,$3,0*
0 Add four circle primitives for the rounded corners*
1,1,$1+$1,$2,$3*
1,1,$1+$1,$4,$5*
1,1,$1+$1,$6,$7*
1,1,$1+$1,$8,$9*
0 Add four rect primitives between the rounded corners*
20,1,$1+$1,$2,$3,$4,$5,0*
20,1,$1+$1,$4,$5,$6,$7,0*
20,1,$1+$1,$6,$7,$8,$9,0*
20,1,$1+$1,$8,$9,$2,$3,0*%
%AMHorizOval*
0 Thick line with rounded ends*
0 $1 width*
0 $2 $3 position (X,Y) of the first rounded end (center of the circle)*
0 $4 $5 position (X,Y) of the second rounded end (center of the circle)*
0 Add line between two ends*
20,1,$1,$2,$3,$4,$5,0*
0 Add two circle primitives to create the rounded ends*
1,1,$1,$2,$3*
1,1,$1,$4,$5*%
%AMRotRect*
0 Rectangle, with rotation*
0 The origin of the aperture is its center*
0 $1 length*
0 $2 width*
0 $3 Rotation angle, in degrees counterclockwise*
0 Add horizontal line*
21,1,$1,$2,0,0,$3*%
%AMFreePoly0*
4,1,245,0.928425,0.999946,0.972951,0.998879,0.975260,0.998770,1.019685,0.995646,1.022022,0.995426,1.066269,0.990219,1.068580,0.989893,1.112522,0.982629,1.114858,0.982185,1.158419,0.972837,1.160677,0.972297,1.203730,0.960944,1.205978,0.960295,1.248472,0.946934,1.250699,0.946176,1.292507,0.930835,1.294700,0.929971,1.335747,0.912673,1.337854,0.911727,1.378062,0.892550,
1.380178,0.891479,1.419421,0.870423,1.421464,0.869263,1.459691,0.846377,1.461664,0.845133,1.498773,0.820495,1.500686,0.819159,1.536602,0.792819,1.538469,0.791382,1.573089,0.763392,1.574882,0.761870,1.608181,0.732253,1.609891,0.730660,1.641743,0.699545,1.643378,0.697871,1.673756,0.665283,1.675313,0.663532,1.704117,0.629572,1.705596,0.627743,1.732774,0.592463,
1.734160,0.590573,1.759662,0.554047,1.760961,0.552090,1.784710,0.514422,1.785913,0.512413,1.807884,0.473653,1.808981,0.471607,1.829123,0.431881,1.833256,0.420476,1.842571,0.379971,3.500095,0.379971,3.535450,0.365326,3.550095,0.329971,3.550095,-0.330022,3.535450,-0.365377,3.500095,-0.380022,1.842578,-0.380022,1.833258,-0.420572,1.829123,-0.431983,1.808981,-0.471708,
1.807884,-0.473753,1.785913,-0.512514,1.784710,-0.514524,1.760961,-0.552192,1.759662,-0.554150,1.734160,-0.590675,1.732774,-0.592564,1.705596,-0.627845,1.704117,-0.629674,1.675313,-0.663634,1.673756,-0.665385,1.643378,-0.697973,1.641743,-0.699647,1.609891,-0.730762,1.608181,-0.732356,1.574882,-0.761972,1.573089,-0.763492,1.538469,-0.791483,1.536602,-0.792921,1.500686,-0.819261,
1.498773,-0.820597,1.461664,-0.845235,1.459691,-0.846480,1.421464,-0.869365,1.419422,-0.870523,1.380179,-0.891580,1.378062,-0.892652,1.337854,-0.911829,1.335746,-0.912775,1.294699,-0.930072,1.292508,-0.930935,1.250700,-0.946277,1.248471,-0.947036,1.205977,-0.960396,1.203731,-0.961045,1.160678,-0.972399,1.158418,-0.972939,1.114857,-0.982286,1.112523,-0.982729,1.068581,-0.989994,
1.066269,-0.990321,1.022022,-0.995528,1.019685,-0.995748,0.975260,-0.998872,0.972951,-0.998981,0.928425,-1.000048,0.927227,-1.000062,-0.926973,-1.000062,-0.928171,-1.000048,-0.972697,-0.998981,-0.975006,-0.998872,-1.019431,-0.995748,-1.021768,-0.995528,-1.066015,-0.990321,-1.068327,-0.989994,-1.112269,-0.982729,-1.114603,-0.982286,-1.158164,-0.972939,-1.160424,-0.972399,-1.203477,-0.961045,
-1.205723,-0.960396,-1.248217,-0.947036,-1.250446,-0.946277,-1.292254,-0.930935,-1.294445,-0.930072,-1.335492,-0.912775,-1.337600,-0.911829,-1.377808,-0.892652,-1.379925,-0.891580,-1.419168,-0.870523,-1.421210,-0.869365,-1.459437,-0.846480,-1.461410,-0.845235,-1.498519,-0.820597,-1.500432,-0.819261,-1.536348,-0.792921,-1.538215,-0.791483,-1.572835,-0.763492,-1.574628,-0.761972,-1.607927,-0.732356,
-1.609637,-0.730762,-1.641489,-0.699647,-1.643124,-0.697973,-1.673502,-0.665385,-1.675059,-0.663634,-1.703863,-0.629674,-1.705342,-0.627845,-1.732520,-0.592564,-1.733906,-0.590675,-1.759408,-0.554150,-1.760707,-0.552192,-1.784456,-0.514524,-1.785659,-0.512514,-1.807630,-0.473753,-1.808727,-0.471708,-1.828869,-0.431983,-1.829891,-0.429843,-1.848128,-0.389203,-1.849027,-0.387070,-1.865359,-0.345642,
-1.866176,-0.343414,-1.880527,-0.301250,-1.881228,-0.299023,-1.893598,-0.256224,-1.894199,-0.253944,-1.904537,-0.210612,-1.905024,-0.208337,-1.913330,-0.164598,-1.913714,-0.162281,-1.919962,-0.118161,-1.920237,-0.115826,-1.924403,-0.071478,-1.924567,-0.069140,-1.926649,-0.024665,-1.926704,-0.022327,-1.926704,0.022225,-1.926649,0.024563,-1.924567,0.069038,-1.924403,0.071376,-1.920237,0.115725,
-1.919962,0.118060,-1.913714,0.162180,-1.913330,0.164497,-1.905024,0.208235,-1.904537,0.210510,-1.894199,0.253843,-1.893598,0.256123,-1.881228,0.298922,-1.880527,0.301149,-1.866176,0.343313,-1.865359,0.345541,-1.849027,0.386968,-1.848128,0.389101,-1.829891,0.429741,-1.828869,0.431881,-1.808727,0.471607,-1.807630,0.473653,-1.785659,0.512413,-1.784456,0.514422,-1.760707,0.552090,
-1.759408,0.554047,-1.733906,0.590573,-1.732520,0.592463,-1.705342,0.627743,-1.703863,0.629572,-1.675059,0.663532,-1.673502,0.665283,-1.643124,0.697871,-1.641489,0.699545,-1.609637,0.730660,-1.607927,0.732253,-1.574628,0.761870,-1.572835,0.763392,-1.538215,0.791382,-1.536348,0.792819,-1.500432,0.819159,-1.498519,0.820495,-1.461410,0.845133,-1.459437,0.846377,-1.421210,0.869263,
-1.419167,0.870423,-1.379924,0.891479,-1.377808,0.892550,-1.337600,0.911727,-1.335493,0.912673,-1.294446,0.929971,-1.292253,0.930835,-1.250445,0.946176,-1.248218,0.946934,-1.205724,0.960295,-1.203476,0.960944,-1.160423,0.972297,-1.158165,0.972837,-1.114604,0.982185,-1.112268,0.982629,-1.068326,0.989893,-1.066015,0.990219,-1.021768,0.995426,-1.019431,0.995646,-0.975006,0.998770,
-0.972697,0.998879,-0.928171,0.999946,-0.926973,0.999960,0.927227,0.999960,0.928425,0.999946,0.928425,0.999946,$1*%
G04 Aperture macros list end*
%TA.AperFunction,SMDPad,CuDef*%
%ADD10RoundRect,0.237500X0.237500X-0.250000X0.237500X0.250000X-0.237500X0.250000X-0.237500X-0.250000X0*%
%TD*%
%TA.AperFunction,SMDPad,CuDef*%
%ADD11RoundRect,0.237500X-0.044194X-0.380070X0.380070X0.044194X0.044194X0.380070X-0.380070X-0.044194X0*%
%TD*%
%TA.AperFunction,ComponentPad*%
%ADD12C,1.000000*%
%TD*%
%TA.AperFunction,SMDPad,CuDef*%
%ADD13R,1.500000X3.000000*%
%TD*%
%TA.AperFunction,SMDPad,CuDef*%
%ADD14RoundRect,0.237500X0.300000X0.237500X-0.300000X0.237500X-0.300000X-0.237500X0.300000X-0.237500X0*%
%TD*%
%TA.AperFunction,SMDPad,CuDef*%
%ADD15RoundRect,0.237500X0.380070X-0.044194X-0.044194X0.380070X-0.380070X0.044194X0.044194X-0.380070X0*%
%TD*%
%TA.AperFunction,SMDPad,CuDef*%
%ADD16RoundRect,0.237500X-0.237500X0.250000X-0.237500X-0.250000X0.237500X-0.250000X0.237500X0.250000X0*%
%TD*%
%TA.AperFunction,SMDPad,CuDef*%
%ADD17RoundRect,0.237500X-0.344715X0.008839X0.008839X-0.344715X0.344715X-0.008839X-0.008839X0.344715X0*%
%TD*%
%TA.AperFunction,SMDPad,CuDef*%
%ADD18RoundRect,0.250000X0.625000X-0.400000X0.625000X0.400000X-0.625000X0.400000X-0.625000X-0.400000X0*%
%TD*%
%TA.AperFunction,ComponentPad*%
%ADD19C,1.700000*%
%TD*%
%TA.AperFunction,ComponentPad*%
%ADD20HorizOval,3.000000X-0.106066X0.106066X0.106066X-0.106066X0*%
%TD*%
%TA.AperFunction,ComponentPad*%
%ADD21HorizOval,3.000000X0.106066X0.106066X-0.106066X-0.106066X0*%
%TD*%
%TA.AperFunction,SMDPad,CuDef*%
%ADD22RotRect,0.600000X1.000000X315.000000*%
%TD*%
%TA.AperFunction,SMDPad,CuDef*%
%ADD23RoundRect,0.250000X-0.550000X1.050000X-0.550000X-1.050000X0.550000X-1.050000X0.550000X1.050000X0*%
%TD*%
%TA.AperFunction,SMDPad,CuDef*%
%ADD24FreePoly0,90.000000*%
%TD*%
%TA.AperFunction,SMDPad,CuDef*%
%ADD25R,0.672000X1.575000*%
%TD*%
%TA.AperFunction,ComponentPad*%
%ADD26C,2.000000*%
%TD*%
%TA.AperFunction,ComponentPad*%
%ADD27RoundRect,0.250000X-0.750000X-0.750000X0.750000X-0.750000X0.750000X0.750000X-0.750000X0.750000X0*%
%TD*%
%TA.AperFunction,ComponentPad*%
%ADD28RoundRect,0.250000X0.750000X0.750000X-0.750000X0.750000X-0.750000X-0.750000X0.750000X-0.750000X0*%
%TD*%
%TA.AperFunction,ComponentPad*%
%ADD29RotRect,1.600000X1.600000X225.000000*%
%TD*%
%TA.AperFunction,ComponentPad*%
%ADD30C,1.600000*%
%TD*%
%TA.AperFunction,SMDPad,CuDef*%
%ADD31R,1.070000X0.600000*%
%TD*%
%TA.AperFunction,SMDPad,CuDef*%
%ADD32O,0.630000X1.865000*%
%TD*%
%TA.AperFunction,SMDPad,CuDef*%
%ADD33RoundRect,0.250000X-0.625000X0.400000X-0.625000X-0.400000X0.625000X-0.400000X0.625000X0.400000X0*%
%TD*%
%TA.AperFunction,SMDPad,CuDef*%
%ADD34RoundRect,0.250000X0.353553X1.131371X-1.131371X-0.353553X-0.353553X-1.131371X1.131371X0.353553X0*%
%TD*%
%TA.AperFunction,SMDPad,CuDef*%
%ADD35RoundRect,0.237500X0.237500X-0.300000X0.237500X0.300000X-0.237500X0.300000X-0.237500X-0.300000X0*%
%TD*%
%TA.AperFunction,SMDPad,CuDef*%
%ADD36RoundRect,0.250000X1.050000X0.550000X-1.050000X0.550000X-1.050000X-0.550000X1.050000X-0.550000X0*%
%TD*%
%TA.AperFunction,SMDPad,CuDef*%
%ADD37RoundRect,0.250000X-1.050000X-0.550000X1.050000X-0.550000X1.050000X0.550000X-1.050000X0.550000X0*%
%TD*%
%TA.AperFunction,ViaPad*%
%ADD38C,0.600000*%
%TD*%
%TA.AperFunction,Conductor*%
%ADD39C,0.200000*%
%TD*%
G04 APERTURE END LIST*
D10*
%TO.P,R2,1*%
%TO.N,Net-(U6-IN-)*%
X124500000Y-111412501D03*
%TO.P,R2,2*%
%TO.N,Net-(C12-Pad1)*%
X124500000Y-109587501D03*
%TD*%
D11*
%TO.P,C10,2*%
%TO.N,3V3+*%
X127609881Y-106890120D03*
%TO.P,C10,1*%
%TO.N,3V3-*%
X126390119Y-108109882D03*
%TD*%
D12*
%TO.P,CN1,*%
%TO.N,*%
X124176889Y-100000000D03*
X117176887Y-100000000D03*
D13*
%TO.P,CN1,1,1*%
%TO.N,GND*%
X127076888Y-103500000D03*
%TO.P,CN1,4,4*%
%TO.N,Net-(CN1-Pad4)*%
X125676888Y-96500001D03*
%TO.P,CN1,3,3*%
%TO.N,Net-(CN1-Pad3)*%
X121676888Y-96500000D03*
%TO.P,CN1,2,2*%
%TO.N,unconnected-(CN1-Pad2)*%
X118676888Y-96500000D03*
%TD*%
D14*
%TO.P,C12,1*%
%TO.N,Net-(C12-Pad1)*%
X123862502Y-107500000D03*
%TO.P,C12,2*%
%TO.N,GND*%
X122137500Y-107500000D03*
%TD*%
D15*
%TO.P,C11,2*%
%TO.N,Net-(C11-Pad2)*%
X127890120Y-90890119D03*
%TO.P,C11,1*%
%TO.N,SIG*%
X129109882Y-92109881D03*
%TD*%
D16*
%TO.P,R6,2*%
%TO.N,Net-(CN1-Pad4)*%
X128000000Y-95912499D03*
%TO.P,R6,1*%
%TO.N,Net-(C11-Pad2)*%
X128000000Y-94087501D03*
%TD*%
D17*
%TO.P,R4,2*%
%TO.N,Net-(CN1-Pad3)*%
X126645234Y-89145234D03*
%TO.P,R4,1*%
%TO.N,Net-(C11-Pad2)*%
X125354766Y-87854766D03*
%TD*%
D18*
%TO.P,R8,2*%
%TO.N,Net-(C12-Pad1)*%
X122500000Y-109449999D03*
%TO.P,R8,1*%
%TO.N,GND*%
X122500000Y-112550001D03*
%TD*%
D16*
%TO.P,R3,2*%
%TO.N,Net-(R3-Pad2)*%
X126000000Y-113412501D03*
%TO.P,R3,1*%
%TO.N,Net-(U6-IN-)*%
X126000000Y-111587501D03*
%TD*%
D19*
%TO.P,R7,1,1*%
%TO.N,Net-(R5-Pad2)*%
X133324891Y-86578263D03*
%TO.P,R7,2,2*%
%TO.N,SIG*%
X135092658Y-84810496D03*
%TO.P,R7,3,3*%
%TO.N,unconnected-(R7-Pad3)*%
X136860425Y-83042728D03*
D20*
%TO.P,R7,4,4*%
%TO.N,GND*%
X133678445Y-76325214D03*
%TO.P,R7,5,5*%
X126607378Y-83396283D03*
%TD*%
D21*
%TO.P,R5,5,5*%
%TO.N,GND*%
X133560661Y-123510407D03*
%TO.P,R5,4,4*%
X126489592Y-116439340D03*
D19*
%TO.P,R5,3,3*%
%TO.N,unconnected-(R5-Pad3)*%
X133207106Y-113257360D03*
%TO.P,R5,2,2*%
%TO.N,Net-(R5-Pad2)*%
X134974874Y-115025127D03*
%TO.P,R5,1,1*%
%TO.N,Net-(R3-Pad2)*%
X136742641Y-116792894D03*
%TD*%
D22*
%TO.P,U6,2,VSS*%
%TO.N,3V3-*%
X128222182Y-110277817D03*
%TO.P,U6,3,IN-*%
%TO.N,Net-(U6-IN-)*%
X128893932Y-110949569D03*
%TO.P,U6,1,IN+*%
%TO.N,Net-(MK1-+)*%
X127550431Y-109606066D03*
%TO.P,U6,4,OUT*%
%TO.N,SIG*%
X130449567Y-109393934D03*
%TO.P,U6,5,VDD*%
%TO.N,3V3+*%
X129106066Y-108050431D03*
%TD*%
D23*
%TO.P,C2,1*%
%TO.N,5V+*%
X144000000Y-128400000D03*
%TO.P,C2,2*%
%TO.N,GND*%
X144000000Y-132000000D03*
%TD*%
D24*
%TO.P,U3,2,VSS*%
%TO.N,GND*%
X155500000Y-125360000D03*
D25*
%TO.P,U3,3,-VIN*%
%TO.N,5V-*%
X154000000Y-122640000D03*
%TO.P,U3,1,-VOUT*%
%TO.N,3V3-*%
X157000000Y-122640000D03*
%TD*%
D26*
%TO.P,MK1,2,+*%
%TO.N,Net-(MK1-+)*%
X124250000Y-104500000D03*
D27*
%TO.P,MK1,1,-*%
%TO.N,GND*%
X119750000Y-104500000D03*
%TD*%
D26*
%TO.P,J1,2,Pin_2*%
%TO.N,GND*%
X174250000Y-106125000D03*
D28*
%TO.P,J1,1,Pin_1*%
%TO.N,Net-(J1-Pin_1)*%
X178750000Y-106125000D03*
%TD*%
D29*
%TO.P,U5,1,VIN*%
%TO.N,Net-(J1-Pin_1)*%
X172147003Y-114054901D03*
D30*
%TO.P,U5,2,GND*%
%TO.N,GND*%
X170350952Y-115850952D03*
%TO.P,U5,3,VOUT*%
%TO.N,5V+*%
X168554901Y-117647003D03*
%TD*%
D31*
%TO.P,U4,1,GND*%
%TO.N,GND*%
X138760000Y-124050000D03*
%TO.P,U4,2,Vout*%
%TO.N,3V3+*%
X138760000Y-125950000D03*
%TO.P,U4,3,Vin*%
%TO.N,5V+*%
X141240000Y-125000000D03*
%TD*%
D32*
%TO.P,U2,1,NC*%
%TO.N,unconnected-(U2-NC-Pad1)*%
X147590000Y-127680000D03*
%TO.P,U2,2,CAP+*%
%TO.N,Net-(U2-CAP+)*%
X148870000Y-127680000D03*
%TO.P,U2,3,GND*%
%TO.N,GND*%
X150130000Y-127680000D03*
%TO.P,U2,4,CAP\u2013*%
%TO.N,Net-(U2-CAP\u2013)*%
X151400000Y-127680000D03*
%TO.P,U2,8,V+*%
%TO.N,5V+*%
X147590000Y-122320000D03*
%TO.P,U2,7,OSC*%
%TO.N,unconnected-(U2-OSC-Pad7)*%
X148870000Y-122320000D03*
%TO.P,U2,6,LV*%
%TO.N,GND*%
X150130000Y-122320000D03*
%TO.P,U2,5,VOUT*%
%TO.N,5V-*%
X151400000Y-122320000D03*
%TD*%
D33*
%TO.P,R1,1*%
%TO.N,Net-(MK1-+)*%
X120000000Y-107450001D03*
%TO.P,R1,2*%
%TO.N,GND*%
X120000000Y-110550001D03*
%TD*%
D34*
%TO.P,C9,1*%
%TO.N,GND*%
X165272792Y-123227208D03*
%TO.P,C9,2*%
%TO.N,3V3-*%
X162727208Y-125772792D03*
%TD*%
%TO.P,C8,1*%
%TO.N,GND*%
X161772792Y-118727208D03*
%TO.P,C8,2*%
%TO.N,5V-*%
X159227208Y-121272792D03*
%TD*%
D35*
%TO.P,C7,1*%
%TO.N,5V+*%
X143000000Y-124862500D03*
%TO.P,C7,2*%
%TO.N,GND*%
X143000000Y-123137500D03*
%TD*%
%TO.P,C6,1*%
%TO.N,3V3+*%
X137000000Y-125862500D03*
%TO.P,C6,2*%
%TO.N,GND*%
X137000000Y-124137500D03*
%TD*%
D11*
%TO.P,C5,1*%
%TO.N,5V+*%
X165890120Y-114609880D03*
%TO.P,C5,2*%
%TO.N,GND*%
X167109880Y-113390120D03*
%TD*%
D15*
%TO.P,C4,1*%
%TO.N,Net-(J1-Pin_1)*%
X170109880Y-110109880D03*
%TO.P,C4,2*%
%TO.N,GND*%
X168890120Y-108890120D03*
%TD*%
D36*
%TO.P,C3,1*%
%TO.N,GND*%
X160300000Y-130000000D03*
%TO.P,C3,2*%
%TO.N,5V-*%
X156700000Y-130000000D03*
%TD*%
D37*
%TO.P,C1,1*%
%TO.N,Net-(U2-CAP+)*%
X149200000Y-131500000D03*
%TO.P,C1,2*%
%TO.N,Net-(U2-CAP\u2013)*%
X152800000Y-131500000D03*
%TD*%
D38*
%TO.N,3V3-*%
X126390119Y-108109882D03*
X157000000Y-122000000D03*
%TO.N,Net-(R3-Pad2)*%
X133000000Y-116500000D03*
%TO.N,GND*%
X155500000Y-125000000D03*
X151500000Y-125000000D03*
%TO.N,5V+*%
X147590000Y-122600000D03*
%TD*%
D39*
%TO.N,SIG*%
X135092658Y-86438256D02*
X135092658Y-84810496D01*
X129421033Y-92109881D02*
X135092658Y-86438256D01*
X129109882Y-92109881D02*
X129421033Y-92109881D01*
X130449567Y-108261148D02*
X130449567Y-109393934D01*
X129109882Y-106921463D02*
X130449567Y-108261148D01*
X129109882Y-92109881D02*
X129109882Y-106921463D01*
%TO.N,Net-(C11-Pad2)*%
X126452196Y-87854766D02*
X125354766Y-87854766D01*
X127890120Y-89292690D02*
X126452196Y-87854766D01*
X127890120Y-90890119D02*
X127890120Y-89292690D01*
X128000000Y-90999999D02*
X127890120Y-90890119D01*
X128000000Y-94087501D02*
X128000000Y-90999999D01*
%TO.N,Net-(CN1-Pad4)*%
X126264390Y-95912499D02*
X125676888Y-96500001D01*
X128000000Y-95912499D02*
X126264390Y-95912499D01*
%TO.N,Net-(CN1-Pad3)*%
X122824889Y-96500000D02*
X121676888Y-96500000D01*
X126645234Y-92679655D02*
X122824889Y-96500000D01*
X126645234Y-89145234D02*
X126645234Y-92679655D01*
%TO.N,GND*%
X140456320Y-132000000D02*
X144000000Y-132000000D01*
X133560661Y-125104341D02*
X140456320Y-132000000D01*
X133560661Y-123510407D02*
X133560661Y-125104341D01*
%TO.N,3V3-*%
X157000000Y-122640000D02*
X157000000Y-122000000D01*
X127868629Y-110631370D02*
X128222182Y-110277817D01*
X127442951Y-110631370D02*
X127868629Y-110631370D01*
X126390119Y-109578538D02*
X127442951Y-110631370D01*
X126390119Y-108109882D02*
X126390119Y-109578538D01*
%TO.N,Net-(R3-Pad2)*%
X129912501Y-113412501D02*
X133000000Y-116500000D01*
X126000000Y-113412501D02*
X129912501Y-113412501D01*
%TO.N,Net-(U6-IN-)*%
X126000000Y-111587501D02*
X128256000Y-111587501D01*
X128256000Y-111587501D02*
X128893932Y-110949569D01*
X124500000Y-111412501D02*
X125825000Y-111412501D01*
X125825000Y-111412501D02*
X126000000Y-111587501D01*
%TO.N,GND*%
X122600253Y-112550001D02*
X126489592Y-116439340D01*
X122500000Y-112550001D02*
X122600253Y-112550001D01*
X122000000Y-112550001D02*
X122500000Y-112550001D01*
X120000000Y-110550001D02*
X122000000Y-112550001D01*
X118500000Y-109050001D02*
X120000000Y-110550001D01*
X118500000Y-105750000D02*
X118500000Y-109050001D01*
X119750000Y-104500000D02*
X118500000Y-105750000D01*
X120000000Y-109637500D02*
X120000000Y-110550001D01*
X122137500Y-107500000D02*
X120000000Y-109637500D01*
%TO.N,Net-(C12-Pad1)*%
X124362498Y-109449999D02*
X124500000Y-109587501D01*
X122500000Y-109449999D02*
X124362498Y-109449999D01*
X123862502Y-108950003D02*
X124500000Y-109587501D01*
X123862502Y-107500000D02*
X123862502Y-108950003D01*
%TO.N,Net-(MK1-+)*%
X127550431Y-108016488D02*
X127550431Y-109606066D01*
X124250000Y-104716057D02*
X127550431Y-108016488D01*
X124250000Y-104500000D02*
X124250000Y-104716057D01*
X122950001Y-104500000D02*
X124250000Y-104500000D01*
X120000000Y-107450001D02*
X122950001Y-104500000D01*
%TO.N,GND*%
X121051000Y-103199000D02*
X119750000Y-104500000D01*
X126775888Y-103199000D02*
X121051000Y-103199000D01*
X127076888Y-103500000D02*
X126775888Y-103199000D01*
X150500000Y-125677000D02*
X149730500Y-126446500D01*
X151500000Y-125000000D02*
X150823000Y-125677000D01*
X150823000Y-125677000D02*
X150500000Y-125677000D01*
X150130000Y-123630000D02*
X150130000Y-122320000D01*
X151500000Y-125000000D02*
X150130000Y-123630000D01*
X155500000Y-125360000D02*
X155500000Y-125000000D01*
%TO.N,5V+*%
X145327500Y-124862500D02*
X147590000Y-122600000D01*
X143000000Y-124862500D02*
X145327500Y-124862500D01*
X144000000Y-125862500D02*
X143000000Y-124862500D01*
X144000000Y-128400000D02*
X144000000Y-125862500D01*
%TO.N,GND*%
X150130000Y-126846000D02*
X150130000Y-127680000D01*
X149730500Y-126446500D02*
X150130000Y-126846000D01*
X147334844Y-126446500D02*
X149730500Y-126446500D01*
X146974000Y-126807344D02*
X147334844Y-126446500D01*
X146974000Y-129026000D02*
X146974000Y-126807344D01*
X144000000Y-132000000D02*
X146974000Y-129026000D01*
%TO.N,3V3+*%
X135467727Y-117145740D02*
X129858272Y-111536285D01*
X135467727Y-124330227D02*
X135467727Y-117145740D01*
X129858272Y-111536285D02*
X129858272Y-109935423D01*
X137000000Y-125862500D02*
X135467727Y-124330227D01*
X129858272Y-109935423D02*
X129106066Y-109183217D01*
X129106066Y-109183217D02*
X129106066Y-108050431D01*
X128770192Y-108050431D02*
X127609881Y-106890120D01*
X129106066Y-108050431D02*
X128770192Y-108050431D01*
%TO.N,GND*%
X138672500Y-124137500D02*
X138760000Y-124050000D01*
X137000000Y-124137500D02*
X138672500Y-124137500D01*
%TO.N,3V3+*%
X137087500Y-125950000D02*
X137000000Y-125862500D01*
X138760000Y-125950000D02*
X137087500Y-125950000D01*
%TO.N,GND*%
X150130000Y-121702500D02*
X150130000Y-122320000D01*
X149514000Y-121086500D02*
X150130000Y-121702500D01*
X145051000Y-121086500D02*
X149514000Y-121086500D01*
X143000000Y-123137500D02*
X145051000Y-121086500D01*
%TO.N,5V-*%
X153680000Y-122320000D02*
X154000000Y-122640000D01*
X151400000Y-122320000D02*
X153680000Y-122320000D01*
%TO.N,3V3+*%
X138572500Y-126137500D02*
X138760000Y-125950000D01*
%TO.N,GND*%
X142087500Y-124050000D02*
X143000000Y-123137500D01*
X138760000Y-124050000D02*
X142087500Y-124050000D01*
%TO.N,5V+*%
X142862500Y-125000000D02*
X143000000Y-124862500D01*
X141240000Y-125000000D02*
X142862500Y-125000000D01*
%TO.N,Net-(U2-CAP+)*%
X149200000Y-128010000D02*
X148870000Y-127680000D01*
X149200000Y-131500000D02*
X149200000Y-128010000D01*
%TO.N,Net-(U2-CAP\u2013)*%
X151400000Y-130100000D02*
X151400000Y-127680000D01*
X152800000Y-131500000D02*
X151400000Y-130100000D01*
%TO.N,5V-*%
X154000000Y-127300000D02*
X154000000Y-122640000D01*
X156700000Y-130000000D02*
X154000000Y-127300000D01*
%TO.N,GND*%
X165272792Y-125027208D02*
X165272792Y-123227208D01*
X160300000Y-130000000D02*
X165272792Y-125027208D01*
%TO.N,3V3-*%
X157000000Y-123500000D02*
X157000000Y-122640000D01*
X162727208Y-125772792D02*
X159272792Y-125772792D01*
X159272792Y-125772792D02*
X157000000Y-123500000D01*
%TO.N,5V-*%
X154000000Y-122188500D02*
X154000000Y-122640000D01*
X154915708Y-121272792D02*
X154000000Y-122188500D01*
X159227208Y-121272792D02*
X154915708Y-121272792D01*
%TO.N,GND*%
X165272792Y-120500000D02*
X163500000Y-118727208D01*
X165272792Y-123227208D02*
X165272792Y-120500000D01*
X163500000Y-118727208D02*
X166227208Y-118727208D01*
X171000000Y-116500000D02*
X170350952Y-115850952D01*
X167000000Y-119500000D02*
X169500000Y-119500000D01*
X166227208Y-118727208D02*
X167000000Y-119500000D01*
X171000000Y-118000000D02*
X171000000Y-116500000D01*
X161772792Y-118727208D02*
X163500000Y-118727208D01*
X169500000Y-119500000D02*
X171000000Y-118000000D01*
%TO.N,5V+*%
X165890120Y-114982222D02*
X168554901Y-117647003D01*
X165890120Y-114609880D02*
X165890120Y-114982222D01*
%TO.N,GND*%
X167109880Y-110670360D02*
X168890120Y-108890120D01*
X167109880Y-113390120D02*
X167109880Y-110670360D01*
X171484880Y-108890120D02*
X168890120Y-108890120D01*
X174250000Y-106125000D02*
X171484880Y-108890120D01*
%TO.N,Net-(J1-Pin_1)*%
X172147003Y-112147003D02*
X170109880Y-110109880D01*
X172147003Y-114054901D02*
X172147003Y-112147003D01*
X178750000Y-106125000D02*
X174765120Y-110109880D01*
X174765120Y-110109880D02*
X170109880Y-110109880D01*
%TD*%
M02*
