%TF.GenerationSoftware,KiCad,Pcbnew,9.0.6*%
%TF.CreationDate,2026-08-21T23:19:19+03:00*%
%TF.ProjectId,spymic,7370796d-6963-42e6-9b69-6361645f7063,rev?*%
%TF.SameCoordinates,Original*%
%TF.FileFunction,Legend,Top*%
%TF.FilePolarity,Positive*%
%FSLAX46Y46*%
G04 Gerber Fmt 4.6, Leading zero omitted, Abs format (unit mm)*
G04 Created by KiCad (PCBNEW 9.0.6) date 2026-08-21 23:19:19*
%MOMM*%
%LPD*%
G01*
G04 APERTURE LIST*
%ADD10C,0.062500*%
%ADD11C,0.150000*%
%ADD12C,0.120000*%
%ADD13C,0.250000*%
%ADD14C,0.060000*%
%ADD15C,0.400000*%
%ADD16C,0.300000*%
G04 APERTURE END LIST*
D10*
X124416666Y-110728059D02*
X124250000Y-110489964D01*
X124130952Y-110728059D02*
X124130952Y-110228059D01*
X124130952Y-110228059D02*
X124321428Y-110228059D01*
X124321428Y-110228059D02*
X124369047Y-110251869D01*
X124369047Y-110251869D02*
X124392857Y-110275678D01*
X124392857Y-110275678D02*
X124416666Y-110323297D01*
X124416666Y-110323297D02*
X124416666Y-110394726D01*
X124416666Y-110394726D02*
X124392857Y-110442345D01*
X124392857Y-110442345D02*
X124369047Y-110466154D01*
X124369047Y-110466154D02*
X124321428Y-110489964D01*
X124321428Y-110489964D02*
X124130952Y-110489964D01*
X124607143Y-110275678D02*
X124630952Y-110251869D01*
X124630952Y-110251869D02*
X124678571Y-110228059D01*
X124678571Y-110228059D02*
X124797619Y-110228059D01*
X124797619Y-110228059D02*
X124845238Y-110251869D01*
X124845238Y-110251869D02*
X124869047Y-110275678D01*
X124869047Y-110275678D02*
X124892857Y-110323297D01*
X124892857Y-110323297D02*
X124892857Y-110370916D01*
X124892857Y-110370916D02*
X124869047Y-110442345D01*
X124869047Y-110442345D02*
X124583333Y-110728059D01*
X124583333Y-110728059D02*
X124892857Y-110728059D01*
X126226477Y-107222975D02*
X126226477Y-107256647D01*
X126226477Y-107256647D02*
X126192805Y-107323990D01*
X126192805Y-107323990D02*
X126159134Y-107357662D01*
X126159134Y-107357662D02*
X126091790Y-107391334D01*
X126091790Y-107391334D02*
X126024447Y-107391334D01*
X126024447Y-107391334D02*
X125973939Y-107374498D01*
X125973939Y-107374498D02*
X125889760Y-107323990D01*
X125889760Y-107323990D02*
X125839252Y-107273483D01*
X125839252Y-107273483D02*
X125788744Y-107189303D01*
X125788744Y-107189303D02*
X125771909Y-107138796D01*
X125771909Y-107138796D02*
X125771909Y-107071452D01*
X125771909Y-107071452D02*
X125805580Y-107004109D01*
X125805580Y-107004109D02*
X125839252Y-106970437D01*
X125839252Y-106970437D02*
X125906596Y-106936765D01*
X125906596Y-106936765D02*
X125940267Y-106936765D01*
X126596866Y-106919929D02*
X126394836Y-107121960D01*
X126495851Y-107020945D02*
X126142298Y-106667391D01*
X126142298Y-106667391D02*
X126159134Y-106751571D01*
X126159134Y-106751571D02*
X126159134Y-106818914D01*
X126159134Y-106818914D02*
X126142298Y-106869422D01*
X126462179Y-106347510D02*
X126495851Y-106313838D01*
X126495851Y-106313838D02*
X126546359Y-106297002D01*
X126546359Y-106297002D02*
X126580030Y-106297002D01*
X126580030Y-106297002D02*
X126630538Y-106313838D01*
X126630538Y-106313838D02*
X126714717Y-106364346D01*
X126714717Y-106364346D02*
X126798897Y-106448525D01*
X126798897Y-106448525D02*
X126849404Y-106532705D01*
X126849404Y-106532705D02*
X126866240Y-106583212D01*
X126866240Y-106583212D02*
X126866240Y-106616884D01*
X126866240Y-106616884D02*
X126849404Y-106667392D01*
X126849404Y-106667392D02*
X126815733Y-106701063D01*
X126815733Y-106701063D02*
X126765225Y-106717899D01*
X126765225Y-106717899D02*
X126731553Y-106717899D01*
X126731553Y-106717899D02*
X126681046Y-106701063D01*
X126681046Y-106701063D02*
X126596866Y-106650556D01*
X126596866Y-106650556D02*
X126512687Y-106566376D01*
X126512687Y-106566376D02*
X126462179Y-106482197D01*
X126462179Y-106482197D02*
X126445343Y-106431689D01*
X126445343Y-106431689D02*
X126445343Y-106398018D01*
X126445343Y-106398018D02*
X126462179Y-106347510D01*
D11*
X121309523Y-91359580D02*
X121261904Y-91407200D01*
X121261904Y-91407200D02*
X121119047Y-91454819D01*
X121119047Y-91454819D02*
X121023809Y-91454819D01*
X121023809Y-91454819D02*
X120880952Y-91407200D01*
X120880952Y-91407200D02*
X120785714Y-91311961D01*
X120785714Y-91311961D02*
X120738095Y-91216723D01*
X120738095Y-91216723D02*
X120690476Y-91026247D01*
X120690476Y-91026247D02*
X120690476Y-90883390D01*
X120690476Y-90883390D02*
X120738095Y-90692914D01*
X120738095Y-90692914D02*
X120785714Y-90597676D01*
X120785714Y-90597676D02*
X120880952Y-90502438D01*
X120880952Y-90502438D02*
X121023809Y-90454819D01*
X121023809Y-90454819D02*
X121119047Y-90454819D01*
X121119047Y-90454819D02*
X121261904Y-90502438D01*
X121261904Y-90502438D02*
X121309523Y-90550057D01*
X121738095Y-91454819D02*
X121738095Y-90454819D01*
X121738095Y-90454819D02*
X122309523Y-91454819D01*
X122309523Y-91454819D02*
X122309523Y-90454819D01*
X123309523Y-91454819D02*
X122738095Y-91454819D01*
X123023809Y-91454819D02*
X123023809Y-90454819D01*
X123023809Y-90454819D02*
X122928571Y-90597676D01*
X122928571Y-90597676D02*
X122833333Y-90692914D01*
X122833333Y-90692914D02*
X122738095Y-90740533D01*
D10*
X122678571Y-106680440D02*
X122654762Y-106704250D01*
X122654762Y-106704250D02*
X122583333Y-106728059D01*
X122583333Y-106728059D02*
X122535714Y-106728059D01*
X122535714Y-106728059D02*
X122464286Y-106704250D01*
X122464286Y-106704250D02*
X122416667Y-106656630D01*
X122416667Y-106656630D02*
X122392857Y-106609011D01*
X122392857Y-106609011D02*
X122369048Y-106513773D01*
X122369048Y-106513773D02*
X122369048Y-106442345D01*
X122369048Y-106442345D02*
X122392857Y-106347107D01*
X122392857Y-106347107D02*
X122416667Y-106299488D01*
X122416667Y-106299488D02*
X122464286Y-106251869D01*
X122464286Y-106251869D02*
X122535714Y-106228059D01*
X122535714Y-106228059D02*
X122583333Y-106228059D01*
X122583333Y-106228059D02*
X122654762Y-106251869D01*
X122654762Y-106251869D02*
X122678571Y-106275678D01*
X123154762Y-106728059D02*
X122869048Y-106728059D01*
X123011905Y-106728059D02*
X123011905Y-106228059D01*
X123011905Y-106228059D02*
X122964286Y-106299488D01*
X122964286Y-106299488D02*
X122916667Y-106347107D01*
X122916667Y-106347107D02*
X122869048Y-106370916D01*
X123345238Y-106275678D02*
X123369047Y-106251869D01*
X123369047Y-106251869D02*
X123416666Y-106228059D01*
X123416666Y-106228059D02*
X123535714Y-106228059D01*
X123535714Y-106228059D02*
X123583333Y-106251869D01*
X123583333Y-106251869D02*
X123607142Y-106275678D01*
X123607142Y-106275678D02*
X123630952Y-106323297D01*
X123630952Y-106323297D02*
X123630952Y-106370916D01*
X123630952Y-106370916D02*
X123607142Y-106442345D01*
X123607142Y-106442345D02*
X123321428Y-106728059D01*
X123321428Y-106728059D02*
X123630952Y-106728059D01*
D11*
X128470064Y-90299693D02*
X128402720Y-90299693D01*
X128402720Y-90299693D02*
X128268033Y-90232349D01*
X128268033Y-90232349D02*
X128200690Y-90165006D01*
X128200690Y-90165006D02*
X128133346Y-90030319D01*
X128133346Y-90030319D02*
X128133346Y-89895632D01*
X128133346Y-89895632D02*
X128167018Y-89794617D01*
X128167018Y-89794617D02*
X128268033Y-89626258D01*
X128268033Y-89626258D02*
X128369048Y-89525243D01*
X128369048Y-89525243D02*
X128537407Y-89424227D01*
X128537407Y-89424227D02*
X128638422Y-89390556D01*
X128638422Y-89390556D02*
X128773109Y-89390556D01*
X128773109Y-89390556D02*
X128907796Y-89457899D01*
X128907796Y-89457899D02*
X128975140Y-89525243D01*
X128975140Y-89525243D02*
X129042483Y-89659930D01*
X129042483Y-89659930D02*
X129042483Y-89727273D01*
X129076155Y-91040471D02*
X128672094Y-90636410D01*
X128874125Y-90838441D02*
X129581231Y-90131334D01*
X129581231Y-90131334D02*
X129412873Y-90165006D01*
X129412873Y-90165006D02*
X129278186Y-90165006D01*
X129278186Y-90165006D02*
X129177170Y-90131334D01*
X129749590Y-91713907D02*
X129345529Y-91309846D01*
X129547560Y-91511876D02*
X130254667Y-90804769D01*
X130254667Y-90804769D02*
X130086308Y-90838441D01*
X130086308Y-90838441D02*
X129951621Y-90838441D01*
X129951621Y-90838441D02*
X129850606Y-90804769D01*
X129725784Y-95143255D02*
X129249593Y-95476588D01*
X129725784Y-95714683D02*
X128725784Y-95714683D01*
X128725784Y-95714683D02*
X128725784Y-95333731D01*
X128725784Y-95333731D02*
X128773403Y-95238493D01*
X128773403Y-95238493D02*
X128821022Y-95190874D01*
X128821022Y-95190874D02*
X128916260Y-95143255D01*
X128916260Y-95143255D02*
X129059117Y-95143255D01*
X129059117Y-95143255D02*
X129154355Y-95190874D01*
X129154355Y-95190874D02*
X129201974Y-95238493D01*
X129201974Y-95238493D02*
X129249593Y-95333731D01*
X129249593Y-95333731D02*
X129249593Y-95714683D01*
X128725784Y-94286112D02*
X128725784Y-94476588D01*
X128725784Y-94476588D02*
X128773403Y-94571826D01*
X128773403Y-94571826D02*
X128821022Y-94619445D01*
X128821022Y-94619445D02*
X128963879Y-94714683D01*
X128963879Y-94714683D02*
X129154355Y-94762302D01*
X129154355Y-94762302D02*
X129535307Y-94762302D01*
X129535307Y-94762302D02*
X129630545Y-94714683D01*
X129630545Y-94714683D02*
X129678165Y-94667064D01*
X129678165Y-94667064D02*
X129725784Y-94571826D01*
X129725784Y-94571826D02*
X129725784Y-94381350D01*
X129725784Y-94381350D02*
X129678165Y-94286112D01*
X129678165Y-94286112D02*
X129630545Y-94238493D01*
X129630545Y-94238493D02*
X129535307Y-94190874D01*
X129535307Y-94190874D02*
X129297212Y-94190874D01*
X129297212Y-94190874D02*
X129201974Y-94238493D01*
X129201974Y-94238493D02*
X129154355Y-94286112D01*
X129154355Y-94286112D02*
X129106736Y-94381350D01*
X129106736Y-94381350D02*
X129106736Y-94571826D01*
X129106736Y-94571826D02*
X129154355Y-94667064D01*
X129154355Y-94667064D02*
X129201974Y-94714683D01*
X129201974Y-94714683D02*
X129297212Y-94762302D01*
X126571705Y-87692592D02*
X126672720Y-87120173D01*
X126167644Y-87288531D02*
X126874751Y-86581425D01*
X126874751Y-86581425D02*
X127144125Y-86850799D01*
X127144125Y-86850799D02*
X127177797Y-86951814D01*
X127177797Y-86951814D02*
X127177797Y-87019157D01*
X127177797Y-87019157D02*
X127144125Y-87120173D01*
X127144125Y-87120173D02*
X127043110Y-87221188D01*
X127043110Y-87221188D02*
X126942094Y-87254860D01*
X126942094Y-87254860D02*
X126874751Y-87254860D01*
X126874751Y-87254860D02*
X126773736Y-87221188D01*
X126773736Y-87221188D02*
X126504362Y-86951814D01*
X127649201Y-87827279D02*
X127177797Y-88298684D01*
X127750216Y-87389547D02*
X127076781Y-87726264D01*
X127076781Y-87726264D02*
X127514514Y-88163997D01*
X122961457Y-111174469D02*
X122485266Y-111507802D01*
X122961457Y-111745897D02*
X121961457Y-111745897D01*
X121961457Y-111745897D02*
X121961457Y-111364945D01*
X121961457Y-111364945D02*
X122009076Y-111269707D01*
X122009076Y-111269707D02*
X122056695Y-111222088D01*
X122056695Y-111222088D02*
X122151933Y-111174469D01*
X122151933Y-111174469D02*
X122294790Y-111174469D01*
X122294790Y-111174469D02*
X122390028Y-111222088D01*
X122390028Y-111222088D02*
X122437647Y-111269707D01*
X122437647Y-111269707D02*
X122485266Y-111364945D01*
X122485266Y-111364945D02*
X122485266Y-111745897D01*
X122390028Y-110603040D02*
X122342409Y-110698278D01*
X122342409Y-110698278D02*
X122294790Y-110745897D01*
X122294790Y-110745897D02*
X122199552Y-110793516D01*
X122199552Y-110793516D02*
X122151933Y-110793516D01*
X122151933Y-110793516D02*
X122056695Y-110745897D01*
X122056695Y-110745897D02*
X122009076Y-110698278D01*
X122009076Y-110698278D02*
X121961457Y-110603040D01*
X121961457Y-110603040D02*
X121961457Y-110412564D01*
X121961457Y-110412564D02*
X122009076Y-110317326D01*
X122009076Y-110317326D02*
X122056695Y-110269707D01*
X122056695Y-110269707D02*
X122151933Y-110222088D01*
X122151933Y-110222088D02*
X122199552Y-110222088D01*
X122199552Y-110222088D02*
X122294790Y-110269707D01*
X122294790Y-110269707D02*
X122342409Y-110317326D01*
X122342409Y-110317326D02*
X122390028Y-110412564D01*
X122390028Y-110412564D02*
X122390028Y-110603040D01*
X122390028Y-110603040D02*
X122437647Y-110698278D01*
X122437647Y-110698278D02*
X122485266Y-110745897D01*
X122485266Y-110745897D02*
X122580504Y-110793516D01*
X122580504Y-110793516D02*
X122770980Y-110793516D01*
X122770980Y-110793516D02*
X122866218Y-110745897D01*
X122866218Y-110745897D02*
X122913838Y-110698278D01*
X122913838Y-110698278D02*
X122961457Y-110603040D01*
X122961457Y-110603040D02*
X122961457Y-110412564D01*
X122961457Y-110412564D02*
X122913838Y-110317326D01*
X122913838Y-110317326D02*
X122866218Y-110269707D01*
X122866218Y-110269707D02*
X122770980Y-110222088D01*
X122770980Y-110222088D02*
X122580504Y-110222088D01*
X122580504Y-110222088D02*
X122485266Y-110269707D01*
X122485266Y-110269707D02*
X122437647Y-110317326D01*
X122437647Y-110317326D02*
X122390028Y-110412564D01*
D10*
X125916666Y-112728060D02*
X125750000Y-112489965D01*
X125630952Y-112728060D02*
X125630952Y-112228060D01*
X125630952Y-112228060D02*
X125821428Y-112228060D01*
X125821428Y-112228060D02*
X125869047Y-112251870D01*
X125869047Y-112251870D02*
X125892857Y-112275679D01*
X125892857Y-112275679D02*
X125916666Y-112323298D01*
X125916666Y-112323298D02*
X125916666Y-112394727D01*
X125916666Y-112394727D02*
X125892857Y-112442346D01*
X125892857Y-112442346D02*
X125869047Y-112466155D01*
X125869047Y-112466155D02*
X125821428Y-112489965D01*
X125821428Y-112489965D02*
X125630952Y-112489965D01*
X126083333Y-112228060D02*
X126392857Y-112228060D01*
X126392857Y-112228060D02*
X126226190Y-112418536D01*
X126226190Y-112418536D02*
X126297619Y-112418536D01*
X126297619Y-112418536D02*
X126345238Y-112442346D01*
X126345238Y-112442346D02*
X126369047Y-112466155D01*
X126369047Y-112466155D02*
X126392857Y-112513774D01*
X126392857Y-112513774D02*
X126392857Y-112632822D01*
X126392857Y-112632822D02*
X126369047Y-112680441D01*
X126369047Y-112680441D02*
X126345238Y-112704251D01*
X126345238Y-112704251D02*
X126297619Y-112728060D01*
X126297619Y-112728060D02*
X126154762Y-112728060D01*
X126154762Y-112728060D02*
X126107143Y-112704251D01*
X126107143Y-112704251D02*
X126083333Y-112680441D01*
D11*
X127518237Y-77471777D02*
X126945818Y-77370762D01*
X127114176Y-77875838D02*
X126407070Y-77168731D01*
X126407070Y-77168731D02*
X126676444Y-76899357D01*
X126676444Y-76899357D02*
X126777459Y-76865685D01*
X126777459Y-76865685D02*
X126844802Y-76865685D01*
X126844802Y-76865685D02*
X126945818Y-76899357D01*
X126945818Y-76899357D02*
X127046833Y-77000372D01*
X127046833Y-77000372D02*
X127080505Y-77101388D01*
X127080505Y-77101388D02*
X127080505Y-77168731D01*
X127080505Y-77168731D02*
X127046833Y-77269746D01*
X127046833Y-77269746D02*
X126777459Y-77539120D01*
X127046833Y-76528968D02*
X127518237Y-76057563D01*
X127518237Y-76057563D02*
X127922298Y-77067716D01*
X126757242Y-123007056D02*
X126858257Y-122434637D01*
X126353181Y-122602995D02*
X127060288Y-121895889D01*
X127060288Y-121895889D02*
X127329662Y-122165263D01*
X127329662Y-122165263D02*
X127363334Y-122266278D01*
X127363334Y-122266278D02*
X127363334Y-122333621D01*
X127363334Y-122333621D02*
X127329662Y-122434637D01*
X127329662Y-122434637D02*
X127228647Y-122535652D01*
X127228647Y-122535652D02*
X127127631Y-122569324D01*
X127127631Y-122569324D02*
X127060288Y-122569324D01*
X127060288Y-122569324D02*
X126959273Y-122535652D01*
X126959273Y-122535652D02*
X126689899Y-122266278D01*
X128104112Y-122939713D02*
X127767395Y-122602995D01*
X127767395Y-122602995D02*
X127397005Y-122906041D01*
X127397005Y-122906041D02*
X127464349Y-122906041D01*
X127464349Y-122906041D02*
X127565364Y-122939713D01*
X127565364Y-122939713D02*
X127733723Y-123108072D01*
X127733723Y-123108072D02*
X127767395Y-123209087D01*
X127767395Y-123209087D02*
X127767395Y-123276430D01*
X127767395Y-123276430D02*
X127733723Y-123377446D01*
X127733723Y-123377446D02*
X127565364Y-123545804D01*
X127565364Y-123545804D02*
X127464349Y-123579476D01*
X127464349Y-123579476D02*
X127397005Y-123579476D01*
X127397005Y-123579476D02*
X127295990Y-123545804D01*
X127295990Y-123545804D02*
X127127631Y-123377446D01*
X127127631Y-123377446D02*
X127093960Y-123276430D01*
X127093960Y-123276430D02*
X127093960Y-123209087D01*
X128771455Y-108659433D02*
X128199035Y-109231853D01*
X128199035Y-109231853D02*
X128165363Y-109332868D01*
X128165363Y-109332868D02*
X128165363Y-109400212D01*
X128165363Y-109400212D02*
X128199035Y-109501227D01*
X128199035Y-109501227D02*
X128333722Y-109635914D01*
X128333722Y-109635914D02*
X128434737Y-109669586D01*
X128434737Y-109669586D02*
X128502081Y-109669586D01*
X128502081Y-109669586D02*
X128603096Y-109635914D01*
X128603096Y-109635914D02*
X129175516Y-109063494D01*
X129815279Y-109703258D02*
X129680592Y-109568571D01*
X129680592Y-109568571D02*
X129579577Y-109534899D01*
X129579577Y-109534899D02*
X129512233Y-109534899D01*
X129512233Y-109534899D02*
X129343874Y-109568571D01*
X129343874Y-109568571D02*
X129175516Y-109669586D01*
X129175516Y-109669586D02*
X128906142Y-109938960D01*
X128906142Y-109938960D02*
X128872470Y-110039975D01*
X128872470Y-110039975D02*
X128872470Y-110107319D01*
X128872470Y-110107319D02*
X128906142Y-110208334D01*
X128906142Y-110208334D02*
X129040829Y-110343021D01*
X129040829Y-110343021D02*
X129141844Y-110376693D01*
X129141844Y-110376693D02*
X129209187Y-110376693D01*
X129209187Y-110376693D02*
X129310203Y-110343021D01*
X129310203Y-110343021D02*
X129478561Y-110174662D01*
X129478561Y-110174662D02*
X129512233Y-110073647D01*
X129512233Y-110073647D02*
X129512233Y-110006303D01*
X129512233Y-110006303D02*
X129478561Y-109905288D01*
X129478561Y-109905288D02*
X129343874Y-109770601D01*
X129343874Y-109770601D02*
X129242859Y-109736929D01*
X129242859Y-109736929D02*
X129175516Y-109736929D01*
X129175516Y-109736929D02*
X129074500Y-109770601D01*
X142859580Y-130666666D02*
X142907200Y-130714285D01*
X142907200Y-130714285D02*
X142954819Y-130857142D01*
X142954819Y-130857142D02*
X142954819Y-130952380D01*
X142954819Y-130952380D02*
X142907200Y-131095237D01*
X142907200Y-131095237D02*
X142811961Y-131190475D01*
X142811961Y-131190475D02*
X142716723Y-131238094D01*
X142716723Y-131238094D02*
X142526247Y-131285713D01*
X142526247Y-131285713D02*
X142383390Y-131285713D01*
X142383390Y-131285713D02*
X142192914Y-131238094D01*
X142192914Y-131238094D02*
X142097676Y-131190475D01*
X142097676Y-131190475D02*
X142002438Y-131095237D01*
X142002438Y-131095237D02*
X141954819Y-130952380D01*
X141954819Y-130952380D02*
X141954819Y-130857142D01*
X141954819Y-130857142D02*
X142002438Y-130714285D01*
X142002438Y-130714285D02*
X142050057Y-130666666D01*
X142050057Y-130285713D02*
X142002438Y-130238094D01*
X142002438Y-130238094D02*
X141954819Y-130142856D01*
X141954819Y-130142856D02*
X141954819Y-129904761D01*
X141954819Y-129904761D02*
X142002438Y-129809523D01*
X142002438Y-129809523D02*
X142050057Y-129761904D01*
X142050057Y-129761904D02*
X142145295Y-129714285D01*
X142145295Y-129714285D02*
X142240533Y-129714285D01*
X142240533Y-129714285D02*
X142383390Y-129761904D01*
X142383390Y-129761904D02*
X142954819Y-130333332D01*
X142954819Y-130333332D02*
X142954819Y-129714285D01*
X149454819Y-124761904D02*
X150264342Y-124761904D01*
X150264342Y-124761904D02*
X150359580Y-124714285D01*
X150359580Y-124714285D02*
X150407200Y-124666666D01*
X150407200Y-124666666D02*
X150454819Y-124571428D01*
X150454819Y-124571428D02*
X150454819Y-124380952D01*
X150454819Y-124380952D02*
X150407200Y-124285714D01*
X150407200Y-124285714D02*
X150359580Y-124238095D01*
X150359580Y-124238095D02*
X150264342Y-124190476D01*
X150264342Y-124190476D02*
X149454819Y-124190476D01*
X149454819Y-123809523D02*
X149454819Y-123190476D01*
X149454819Y-123190476D02*
X149835771Y-123523809D01*
X149835771Y-123523809D02*
X149835771Y-123380952D01*
X149835771Y-123380952D02*
X149883390Y-123285714D01*
X149883390Y-123285714D02*
X149931009Y-123238095D01*
X149931009Y-123238095D02*
X150026247Y-123190476D01*
X150026247Y-123190476D02*
X150264342Y-123190476D01*
X150264342Y-123190476D02*
X150359580Y-123238095D01*
X150359580Y-123238095D02*
X150407200Y-123285714D01*
X150407200Y-123285714D02*
X150454819Y-123380952D01*
X150454819Y-123380952D02*
X150454819Y-123666666D01*
X150454819Y-123666666D02*
X150407200Y-123761904D01*
X150407200Y-123761904D02*
X150359580Y-123809523D01*
X172255129Y-118832625D02*
X172827549Y-119405045D01*
X172827549Y-119405045D02*
X172928564Y-119438717D01*
X172928564Y-119438717D02*
X172995908Y-119438717D01*
X172995908Y-119438717D02*
X173096923Y-119405045D01*
X173096923Y-119405045D02*
X173231610Y-119270358D01*
X173231610Y-119270358D02*
X173265282Y-119169343D01*
X173265282Y-119169343D02*
X173265282Y-119101999D01*
X173265282Y-119101999D02*
X173231610Y-119000984D01*
X173231610Y-119000984D02*
X172659190Y-118428564D01*
X173332625Y-117755129D02*
X172995908Y-118091847D01*
X172995908Y-118091847D02*
X173298954Y-118462236D01*
X173298954Y-118462236D02*
X173298954Y-118394893D01*
X173298954Y-118394893D02*
X173332625Y-118293877D01*
X173332625Y-118293877D02*
X173500984Y-118125519D01*
X173500984Y-118125519D02*
X173601999Y-118091847D01*
X173601999Y-118091847D02*
X173669343Y-118091847D01*
X173669343Y-118091847D02*
X173770358Y-118125519D01*
X173770358Y-118125519D02*
X173938717Y-118293877D01*
X173938717Y-118293877D02*
X173972389Y-118394893D01*
X173972389Y-118394893D02*
X173972389Y-118462236D01*
X173972389Y-118462236D02*
X173938717Y-118563251D01*
X173938717Y-118563251D02*
X173770358Y-118731610D01*
X173770358Y-118731610D02*
X173669343Y-118765282D01*
X173669343Y-118765282D02*
X173601999Y-118765282D01*
X139444685Y-125787062D02*
X140254208Y-125787062D01*
X140254208Y-125787062D02*
X140349446Y-125739443D01*
X140349446Y-125739443D02*
X140397066Y-125691824D01*
X140397066Y-125691824D02*
X140444685Y-125596586D01*
X140444685Y-125596586D02*
X140444685Y-125406110D01*
X140444685Y-125406110D02*
X140397066Y-125310872D01*
X140397066Y-125310872D02*
X140349446Y-125263253D01*
X140349446Y-125263253D02*
X140254208Y-125215634D01*
X140254208Y-125215634D02*
X139444685Y-125215634D01*
X139778018Y-124310872D02*
X140444685Y-124310872D01*
X139397066Y-124548967D02*
X140111351Y-124787062D01*
X140111351Y-124787062D02*
X140111351Y-124168015D01*
X148738095Y-117772819D02*
X148738095Y-118582342D01*
X148738095Y-118582342D02*
X148785714Y-118677580D01*
X148785714Y-118677580D02*
X148833333Y-118725200D01*
X148833333Y-118725200D02*
X148928571Y-118772819D01*
X148928571Y-118772819D02*
X149119047Y-118772819D01*
X149119047Y-118772819D02*
X149214285Y-118725200D01*
X149214285Y-118725200D02*
X149261904Y-118677580D01*
X149261904Y-118677580D02*
X149309523Y-118582342D01*
X149309523Y-118582342D02*
X149309523Y-117772819D01*
X149738095Y-117868057D02*
X149785714Y-117820438D01*
X149785714Y-117820438D02*
X149880952Y-117772819D01*
X149880952Y-117772819D02*
X150119047Y-117772819D01*
X150119047Y-117772819D02*
X150214285Y-117820438D01*
X150214285Y-117820438D02*
X150261904Y-117868057D01*
X150261904Y-117868057D02*
X150309523Y-117963295D01*
X150309523Y-117963295D02*
X150309523Y-118058533D01*
X150309523Y-118058533D02*
X150261904Y-118201390D01*
X150261904Y-118201390D02*
X149690476Y-118772819D01*
X149690476Y-118772819D02*
X150309523Y-118772819D01*
X120526797Y-108989518D02*
X120050606Y-109322851D01*
X120526797Y-109560946D02*
X119526797Y-109560946D01*
X119526797Y-109560946D02*
X119526797Y-109179994D01*
X119526797Y-109179994D02*
X119574416Y-109084756D01*
X119574416Y-109084756D02*
X119622035Y-109037137D01*
X119622035Y-109037137D02*
X119717273Y-108989518D01*
X119717273Y-108989518D02*
X119860130Y-108989518D01*
X119860130Y-108989518D02*
X119955368Y-109037137D01*
X119955368Y-109037137D02*
X120002987Y-109084756D01*
X120002987Y-109084756D02*
X120050606Y-109179994D01*
X120050606Y-109179994D02*
X120050606Y-109560946D01*
X120526797Y-108037137D02*
X120526797Y-108608565D01*
X120526797Y-108322851D02*
X119526797Y-108322851D01*
X119526797Y-108322851D02*
X119669654Y-108418089D01*
X119669654Y-108418089D02*
X119764892Y-108513327D01*
X119764892Y-108513327D02*
X119812511Y-108608565D01*
X163136411Y-123872112D02*
X163136411Y-123939456D01*
X163136411Y-123939456D02*
X163069067Y-124074143D01*
X163069067Y-124074143D02*
X163001724Y-124141486D01*
X163001724Y-124141486D02*
X162867037Y-124208830D01*
X162867037Y-124208830D02*
X162732350Y-124208830D01*
X162732350Y-124208830D02*
X162631335Y-124175158D01*
X162631335Y-124175158D02*
X162462976Y-124074143D01*
X162462976Y-124074143D02*
X162361961Y-123973128D01*
X162361961Y-123973128D02*
X162260945Y-123804769D01*
X162260945Y-123804769D02*
X162227274Y-123703754D01*
X162227274Y-123703754D02*
X162227274Y-123569067D01*
X162227274Y-123569067D02*
X162294617Y-123434380D01*
X162294617Y-123434380D02*
X162361961Y-123367036D01*
X162361961Y-123367036D02*
X162496648Y-123299693D01*
X162496648Y-123299693D02*
X162563991Y-123299693D01*
X163540472Y-123602738D02*
X163675159Y-123468051D01*
X163675159Y-123468051D02*
X163708831Y-123367036D01*
X163708831Y-123367036D02*
X163708831Y-123299693D01*
X163708831Y-123299693D02*
X163675159Y-123131334D01*
X163675159Y-123131334D02*
X163574144Y-122962975D01*
X163574144Y-122962975D02*
X163304770Y-122693601D01*
X163304770Y-122693601D02*
X163203754Y-122659929D01*
X163203754Y-122659929D02*
X163136411Y-122659929D01*
X163136411Y-122659929D02*
X163035396Y-122693601D01*
X163035396Y-122693601D02*
X162900709Y-122828288D01*
X162900709Y-122828288D02*
X162867037Y-122929303D01*
X162867037Y-122929303D02*
X162867037Y-122996647D01*
X162867037Y-122996647D02*
X162900709Y-123097662D01*
X162900709Y-123097662D02*
X163069067Y-123266021D01*
X163069067Y-123266021D02*
X163170083Y-123299693D01*
X163170083Y-123299693D02*
X163237426Y-123299693D01*
X163237426Y-123299693D02*
X163338441Y-123266021D01*
X163338441Y-123266021D02*
X163473128Y-123131334D01*
X163473128Y-123131334D02*
X163506800Y-123030319D01*
X163506800Y-123030319D02*
X163506800Y-122962975D01*
X163506800Y-122962975D02*
X163473128Y-122861960D01*
X161581107Y-121525250D02*
X161581107Y-121592594D01*
X161581107Y-121592594D02*
X161513763Y-121727281D01*
X161513763Y-121727281D02*
X161446420Y-121794624D01*
X161446420Y-121794624D02*
X161311733Y-121861968D01*
X161311733Y-121861968D02*
X161177046Y-121861968D01*
X161177046Y-121861968D02*
X161076031Y-121828296D01*
X161076031Y-121828296D02*
X160907672Y-121727281D01*
X160907672Y-121727281D02*
X160806657Y-121626266D01*
X160806657Y-121626266D02*
X160705641Y-121457907D01*
X160705641Y-121457907D02*
X160671970Y-121356892D01*
X160671970Y-121356892D02*
X160671970Y-121222205D01*
X160671970Y-121222205D02*
X160739313Y-121087518D01*
X160739313Y-121087518D02*
X160806657Y-121020174D01*
X160806657Y-121020174D02*
X160941344Y-120952831D01*
X160941344Y-120952831D02*
X161008687Y-120952831D01*
X161648450Y-120784472D02*
X161547435Y-120818144D01*
X161547435Y-120818144D02*
X161480092Y-120818144D01*
X161480092Y-120818144D02*
X161379076Y-120784472D01*
X161379076Y-120784472D02*
X161345405Y-120750800D01*
X161345405Y-120750800D02*
X161311733Y-120649785D01*
X161311733Y-120649785D02*
X161311733Y-120582441D01*
X161311733Y-120582441D02*
X161345405Y-120481426D01*
X161345405Y-120481426D02*
X161480092Y-120346739D01*
X161480092Y-120346739D02*
X161581107Y-120313067D01*
X161581107Y-120313067D02*
X161648450Y-120313067D01*
X161648450Y-120313067D02*
X161749466Y-120346739D01*
X161749466Y-120346739D02*
X161783137Y-120380411D01*
X161783137Y-120380411D02*
X161816809Y-120481426D01*
X161816809Y-120481426D02*
X161816809Y-120548770D01*
X161816809Y-120548770D02*
X161783137Y-120649785D01*
X161783137Y-120649785D02*
X161648450Y-120784472D01*
X161648450Y-120784472D02*
X161614779Y-120885487D01*
X161614779Y-120885487D02*
X161614779Y-120952831D01*
X161614779Y-120952831D02*
X161648450Y-121053846D01*
X161648450Y-121053846D02*
X161783137Y-121188533D01*
X161783137Y-121188533D02*
X161884153Y-121222205D01*
X161884153Y-121222205D02*
X161951496Y-121222205D01*
X161951496Y-121222205D02*
X162052511Y-121188533D01*
X162052511Y-121188533D02*
X162187198Y-121053846D01*
X162187198Y-121053846D02*
X162220870Y-120952831D01*
X162220870Y-120952831D02*
X162220870Y-120885487D01*
X162220870Y-120885487D02*
X162187198Y-120784472D01*
X162187198Y-120784472D02*
X162052511Y-120649785D01*
X162052511Y-120649785D02*
X161951496Y-120616113D01*
X161951496Y-120616113D02*
X161884153Y-120616113D01*
X161884153Y-120616113D02*
X161783137Y-120649785D01*
X142833333Y-123359580D02*
X142785714Y-123407200D01*
X142785714Y-123407200D02*
X142642857Y-123454819D01*
X142642857Y-123454819D02*
X142547619Y-123454819D01*
X142547619Y-123454819D02*
X142404762Y-123407200D01*
X142404762Y-123407200D02*
X142309524Y-123311961D01*
X142309524Y-123311961D02*
X142261905Y-123216723D01*
X142261905Y-123216723D02*
X142214286Y-123026247D01*
X142214286Y-123026247D02*
X142214286Y-122883390D01*
X142214286Y-122883390D02*
X142261905Y-122692914D01*
X142261905Y-122692914D02*
X142309524Y-122597676D01*
X142309524Y-122597676D02*
X142404762Y-122502438D01*
X142404762Y-122502438D02*
X142547619Y-122454819D01*
X142547619Y-122454819D02*
X142642857Y-122454819D01*
X142642857Y-122454819D02*
X142785714Y-122502438D01*
X142785714Y-122502438D02*
X142833333Y-122550057D01*
X143166667Y-122454819D02*
X143833333Y-122454819D01*
X143833333Y-122454819D02*
X143404762Y-123454819D01*
X136215081Y-125167248D02*
X136262701Y-125214867D01*
X136262701Y-125214867D02*
X136310320Y-125357724D01*
X136310320Y-125357724D02*
X136310320Y-125452962D01*
X136310320Y-125452962D02*
X136262701Y-125595819D01*
X136262701Y-125595819D02*
X136167462Y-125691057D01*
X136167462Y-125691057D02*
X136072224Y-125738676D01*
X136072224Y-125738676D02*
X135881748Y-125786295D01*
X135881748Y-125786295D02*
X135738891Y-125786295D01*
X135738891Y-125786295D02*
X135548415Y-125738676D01*
X135548415Y-125738676D02*
X135453177Y-125691057D01*
X135453177Y-125691057D02*
X135357939Y-125595819D01*
X135357939Y-125595819D02*
X135310320Y-125452962D01*
X135310320Y-125452962D02*
X135310320Y-125357724D01*
X135310320Y-125357724D02*
X135357939Y-125214867D01*
X135357939Y-125214867D02*
X135405558Y-125167248D01*
X135310320Y-124310105D02*
X135310320Y-124500581D01*
X135310320Y-124500581D02*
X135357939Y-124595819D01*
X135357939Y-124595819D02*
X135405558Y-124643438D01*
X135405558Y-124643438D02*
X135548415Y-124738676D01*
X135548415Y-124738676D02*
X135738891Y-124786295D01*
X135738891Y-124786295D02*
X136119843Y-124786295D01*
X136119843Y-124786295D02*
X136215081Y-124738676D01*
X136215081Y-124738676D02*
X136262701Y-124691057D01*
X136262701Y-124691057D02*
X136310320Y-124595819D01*
X136310320Y-124595819D02*
X136310320Y-124405343D01*
X136310320Y-124405343D02*
X136262701Y-124310105D01*
X136262701Y-124310105D02*
X136215081Y-124262486D01*
X136215081Y-124262486D02*
X136119843Y-124214867D01*
X136119843Y-124214867D02*
X135881748Y-124214867D01*
X135881748Y-124214867D02*
X135786510Y-124262486D01*
X135786510Y-124262486D02*
X135738891Y-124310105D01*
X135738891Y-124310105D02*
X135691272Y-124405343D01*
X135691272Y-124405343D02*
X135691272Y-124595819D01*
X135691272Y-124595819D02*
X135738891Y-124691057D01*
X135738891Y-124691057D02*
X135786510Y-124738676D01*
X135786510Y-124738676D02*
X135881748Y-124786295D01*
X165877327Y-113522707D02*
X165877327Y-113590051D01*
X165877327Y-113590051D02*
X165809983Y-113724738D01*
X165809983Y-113724738D02*
X165742640Y-113792081D01*
X165742640Y-113792081D02*
X165607953Y-113859425D01*
X165607953Y-113859425D02*
X165473266Y-113859425D01*
X165473266Y-113859425D02*
X165372251Y-113825753D01*
X165372251Y-113825753D02*
X165203892Y-113724738D01*
X165203892Y-113724738D02*
X165102877Y-113623723D01*
X165102877Y-113623723D02*
X165001861Y-113455364D01*
X165001861Y-113455364D02*
X164968190Y-113354349D01*
X164968190Y-113354349D02*
X164968190Y-113219662D01*
X164968190Y-113219662D02*
X165035533Y-113084975D01*
X165035533Y-113084975D02*
X165102877Y-113017631D01*
X165102877Y-113017631D02*
X165237564Y-112950288D01*
X165237564Y-112950288D02*
X165304907Y-112950288D01*
X165877327Y-112243181D02*
X165540609Y-112579898D01*
X165540609Y-112579898D02*
X165843655Y-112950288D01*
X165843655Y-112950288D02*
X165843655Y-112882944D01*
X165843655Y-112882944D02*
X165877327Y-112781929D01*
X165877327Y-112781929D02*
X166045686Y-112613570D01*
X166045686Y-112613570D02*
X166146701Y-112579898D01*
X166146701Y-112579898D02*
X166214044Y-112579898D01*
X166214044Y-112579898D02*
X166315060Y-112613570D01*
X166315060Y-112613570D02*
X166483418Y-112781929D01*
X166483418Y-112781929D02*
X166517090Y-112882944D01*
X166517090Y-112882944D02*
X166517090Y-112950288D01*
X166517090Y-112950288D02*
X166483418Y-113051303D01*
X166483418Y-113051303D02*
X166315060Y-113219662D01*
X166315060Y-113219662D02*
X166214044Y-113253333D01*
X166214044Y-113253333D02*
X166146701Y-113253333D01*
X169866093Y-108731014D02*
X169798749Y-108731014D01*
X169798749Y-108731014D02*
X169664062Y-108663670D01*
X169664062Y-108663670D02*
X169596719Y-108596327D01*
X169596719Y-108596327D02*
X169529375Y-108461640D01*
X169529375Y-108461640D02*
X169529375Y-108326953D01*
X169529375Y-108326953D02*
X169563047Y-108225938D01*
X169563047Y-108225938D02*
X169664062Y-108057579D01*
X169664062Y-108057579D02*
X169765077Y-107956564D01*
X169765077Y-107956564D02*
X169933436Y-107855548D01*
X169933436Y-107855548D02*
X170034451Y-107821877D01*
X170034451Y-107821877D02*
X170169138Y-107821877D01*
X170169138Y-107821877D02*
X170303825Y-107889220D01*
X170303825Y-107889220D02*
X170371169Y-107956564D01*
X170371169Y-107956564D02*
X170438512Y-108091251D01*
X170438512Y-108091251D02*
X170438512Y-108158594D01*
X170876245Y-108933044D02*
X170404841Y-109404449D01*
X170977260Y-108495312D02*
X170303825Y-108832029D01*
X170303825Y-108832029D02*
X170741558Y-109269762D01*
X158333333Y-131859580D02*
X158285714Y-131907200D01*
X158285714Y-131907200D02*
X158142857Y-131954819D01*
X158142857Y-131954819D02*
X158047619Y-131954819D01*
X158047619Y-131954819D02*
X157904762Y-131907200D01*
X157904762Y-131907200D02*
X157809524Y-131811961D01*
X157809524Y-131811961D02*
X157761905Y-131716723D01*
X157761905Y-131716723D02*
X157714286Y-131526247D01*
X157714286Y-131526247D02*
X157714286Y-131383390D01*
X157714286Y-131383390D02*
X157761905Y-131192914D01*
X157761905Y-131192914D02*
X157809524Y-131097676D01*
X157809524Y-131097676D02*
X157904762Y-131002438D01*
X157904762Y-131002438D02*
X158047619Y-130954819D01*
X158047619Y-130954819D02*
X158142857Y-130954819D01*
X158142857Y-130954819D02*
X158285714Y-131002438D01*
X158285714Y-131002438D02*
X158333333Y-131050057D01*
X158666667Y-130954819D02*
X159285714Y-130954819D01*
X159285714Y-130954819D02*
X158952381Y-131335771D01*
X158952381Y-131335771D02*
X159095238Y-131335771D01*
X159095238Y-131335771D02*
X159190476Y-131383390D01*
X159190476Y-131383390D02*
X159238095Y-131431009D01*
X159238095Y-131431009D02*
X159285714Y-131526247D01*
X159285714Y-131526247D02*
X159285714Y-131764342D01*
X159285714Y-131764342D02*
X159238095Y-131859580D01*
X159238095Y-131859580D02*
X159190476Y-131907200D01*
X159190476Y-131907200D02*
X159095238Y-131954819D01*
X159095238Y-131954819D02*
X158809524Y-131954819D01*
X158809524Y-131954819D02*
X158714286Y-131907200D01*
X158714286Y-131907200D02*
X158666667Y-131859580D01*
X150833333Y-133359580D02*
X150785714Y-133407200D01*
X150785714Y-133407200D02*
X150642857Y-133454819D01*
X150642857Y-133454819D02*
X150547619Y-133454819D01*
X150547619Y-133454819D02*
X150404762Y-133407200D01*
X150404762Y-133407200D02*
X150309524Y-133311961D01*
X150309524Y-133311961D02*
X150261905Y-133216723D01*
X150261905Y-133216723D02*
X150214286Y-133026247D01*
X150214286Y-133026247D02*
X150214286Y-132883390D01*
X150214286Y-132883390D02*
X150261905Y-132692914D01*
X150261905Y-132692914D02*
X150309524Y-132597676D01*
X150309524Y-132597676D02*
X150404762Y-132502438D01*
X150404762Y-132502438D02*
X150547619Y-132454819D01*
X150547619Y-132454819D02*
X150642857Y-132454819D01*
X150642857Y-132454819D02*
X150785714Y-132502438D01*
X150785714Y-132502438D02*
X150833333Y-132550057D01*
X151785714Y-133454819D02*
X151214286Y-133454819D01*
X151500000Y-133454819D02*
X151500000Y-132454819D01*
X151500000Y-132454819D02*
X151404762Y-132597676D01*
X151404762Y-132597676D02*
X151309524Y-132692914D01*
X151309524Y-132692914D02*
X151214286Y-132740533D01*
D12*
%TO.C,R2*%
X123977501Y-110754725D02*
X123977500Y-110245277D01*
X125022500Y-110754725D02*
X125022499Y-110245277D01*
%TO.C,C10*%
X127257198Y-107964052D02*
X127464050Y-107757199D01*
X126535950Y-107242803D02*
X126742802Y-107035950D01*
D13*
%TO.C,CN1*%
X115476887Y-97000000D02*
X115476888Y-103000000D01*
X113476888Y-97500000D02*
X113476889Y-102500001D01*
X115476889Y-97500000D02*
X113476888Y-97500000D01*
X113476889Y-102500001D02*
X115476890Y-102499999D01*
X115476887Y-97000000D02*
X117696888Y-97000000D01*
X119656888Y-97000001D02*
X120696889Y-97000001D01*
X122656888Y-97000001D02*
X124696889Y-97000000D01*
X126656887Y-97000000D02*
X127576889Y-97000000D01*
X127576889Y-97000000D02*
X127576888Y-101769999D01*
X115476888Y-103000000D02*
X126096888Y-102999999D01*
D12*
%TO.C,C12*%
X123146268Y-108010000D02*
X122853734Y-108010000D01*
X123146268Y-106990000D02*
X122853734Y-106990000D01*
%TO.C,C11*%
X128964052Y-91242802D02*
X128757199Y-91035950D01*
X128242803Y-91964050D02*
X128035950Y-91757198D01*
%TO.C,R6*%
X127477500Y-94745276D02*
X127477500Y-95254723D01*
X128522500Y-94745277D02*
X128522500Y-95254724D01*
%TO.C,R4*%
X125450420Y-88689346D02*
X125810653Y-89049580D01*
X126189347Y-87950420D02*
X126549580Y-88310654D01*
%TO.C,R8*%
X123410000Y-111727064D02*
X123410000Y-110272936D01*
X121590000Y-111727064D02*
X121590000Y-110272936D01*
%TO.C,R3*%
X125477500Y-112245277D02*
X125477501Y-112754725D01*
X126522499Y-112245277D02*
X126522500Y-112754725D01*
D13*
%TO.C,R7*%
X138210999Y-81055759D02*
X137221050Y-82045708D01*
X134937095Y-77725286D02*
X138203928Y-80992120D01*
X122789001Y-79436484D02*
X129718647Y-72506839D01*
X129718647Y-72506839D02*
X132278374Y-75066564D01*
X122789001Y-79436484D02*
X125348727Y-81996210D01*
X128007449Y-84654932D02*
X131274281Y-87921765D01*
X131274281Y-87921765D02*
X132264231Y-86931817D01*
X133621877Y-85574170D02*
X134060283Y-85135764D01*
X135417927Y-83778121D02*
X135856334Y-83339714D01*
X127858956Y-77930346D02*
X128940830Y-79012220D01*
X128940830Y-79012220D02*
X129294382Y-78658667D01*
X129294382Y-78658667D02*
X128212509Y-77576793D01*
D14*
X131587126Y-88558162D02*
G75*
G02*
X131527126Y-88558162I-30000J0D01*
G01*
X131527126Y-88558162D02*
G75*
G02*
X131587126Y-88558162I30000J0D01*
G01*
D13*
X133142910Y-79860748D02*
G75*
G02*
X127142914Y-79860748I-2999998J0D01*
G01*
X127142914Y-79860748D02*
G75*
G02*
X133142910Y-79860748I2999998J0D01*
G01*
X125708102Y-79372844D02*
G75*
G02*
X124268104Y-79372844I-719999J0D01*
G01*
X124268104Y-79372844D02*
G75*
G02*
X125708102Y-79372844I719999J0D01*
G01*
X130375008Y-74705940D02*
G75*
G02*
X128935008Y-74705940I-720000J0D01*
G01*
X128935008Y-74705940D02*
G75*
G02*
X130375008Y-74705940I720000J0D01*
G01*
X131994282Y-85659025D02*
G75*
G02*
X130554282Y-85659025I-720000J0D01*
G01*
X130554282Y-85659025D02*
G75*
G02*
X131994282Y-85659025I720000J0D01*
G01*
X136661187Y-80992119D02*
G75*
G02*
X135221189Y-80992119I-719999J0D01*
G01*
X135221189Y-80992119D02*
G75*
G02*
X136661187Y-80992119I719999J0D01*
G01*
D15*
X132577368Y-87695491D02*
G75*
G02*
X132177370Y-87695491I-199999J0D01*
G01*
X132177370Y-87695491D02*
G75*
G02*
X132577368Y-87695491I199999J0D01*
G01*
%TO.C,R5*%
X138059868Y-117740416D02*
G75*
G02*
X137659870Y-117740416I-199999J0D01*
G01*
X137659870Y-117740416D02*
G75*
G02*
X138059868Y-117740416I199999J0D01*
G01*
D13*
X131876496Y-114176597D02*
G75*
G02*
X130436498Y-114176597I-719999J0D01*
G01*
X130436498Y-114176597D02*
G75*
G02*
X131876496Y-114176597I719999J0D01*
G01*
X136543403Y-118843503D02*
G75*
G02*
X135103403Y-118843503I-720000J0D01*
G01*
X135103403Y-118843503D02*
G75*
G02*
X136543403Y-118843503I720000J0D01*
G01*
X125590318Y-120462777D02*
G75*
G02*
X124150318Y-120462777I-720000J0D01*
G01*
X124150318Y-120462777D02*
G75*
G02*
X125590318Y-120462777I720000J0D01*
G01*
X130257221Y-125129682D02*
G75*
G02*
X128817223Y-125129682I-719999J0D01*
G01*
X128817223Y-125129682D02*
G75*
G02*
X130257221Y-125129682I719999J0D01*
G01*
X133025124Y-119974873D02*
G75*
G02*
X127025128Y-119974873I-2999998J0D01*
G01*
X127025128Y-119974873D02*
G75*
G02*
X133025124Y-119974873I2999998J0D01*
G01*
D14*
X138752540Y-118560659D02*
G75*
G02*
X138692540Y-118560659I-30000J0D01*
G01*
X138692540Y-118560659D02*
G75*
G02*
X138752540Y-118560659I30000J0D01*
G01*
D13*
X128823045Y-120823403D02*
X127741171Y-121905276D01*
X129176598Y-121176955D02*
X128823045Y-120823403D01*
X128094724Y-122258829D02*
X129176598Y-121176955D01*
X133942499Y-114699858D02*
X133504092Y-114261451D01*
X135738548Y-116495908D02*
X135300142Y-116057502D01*
X138086143Y-118843504D02*
X137096195Y-117853554D01*
X134819310Y-122110336D02*
X138086143Y-118843504D01*
X129600862Y-127328784D02*
X132160588Y-124769058D01*
X122671217Y-120399138D02*
X125230942Y-117839411D01*
X129600862Y-127328784D02*
X122671217Y-120399138D01*
X127889664Y-115180690D02*
X131156498Y-111913857D01*
X131220137Y-111906786D02*
X132210086Y-112896735D01*
D14*
%TO.C,U6*%
X127014745Y-109464644D02*
G75*
G02*
X126954743Y-109464644I-30001J0D01*
G01*
X126954743Y-109464644D02*
G75*
G02*
X127014745Y-109464644I30001J0D01*
G01*
D13*
X129360622Y-108601973D02*
X129898026Y-109139376D01*
X130286933Y-110192965D02*
X129692964Y-110786934D01*
X128420171Y-107930222D02*
X127430222Y-108920172D01*
D12*
%TO.C,C2*%
X145560000Y-127200000D02*
X145560000Y-127700000D01*
X145810000Y-127450000D02*
X145310000Y-127450000D01*
X145195563Y-127940000D02*
X145060000Y-127940000D01*
X145195563Y-127940000D02*
X146260000Y-129004437D01*
X142804437Y-127940000D02*
X142940000Y-127940000D01*
X142804437Y-127940000D02*
X141740000Y-129004437D01*
X146260000Y-129004437D02*
X146260000Y-132460000D01*
X141740000Y-129004437D02*
X141740000Y-132460000D01*
X146260000Y-132460000D02*
X145060000Y-132460000D01*
X141740000Y-132460000D02*
X142940000Y-132460000D01*
D14*
%TO.C,U3*%
X157780000Y-122280000D02*
G75*
G02*
X157720000Y-122280000I-30000J0D01*
G01*
X157720000Y-122280000D02*
G75*
G02*
X157780000Y-122280000I30000J0D01*
G01*
D11*
X157830000Y-125950000D02*
X156680000Y-125950000D01*
X157830000Y-123300000D02*
X157830000Y-125950000D01*
X153170000Y-125950000D02*
X154320000Y-125950000D01*
X153170000Y-123300000D02*
X153170000Y-125950000D01*
D12*
%TO.C,J1*%
X173140000Y-104865000D02*
X173140000Y-95235000D01*
X175360000Y-104865000D02*
X175360000Y-95235000D01*
X177640000Y-104865000D02*
X177640000Y-95235000D01*
X179860000Y-104865000D02*
X179860000Y-95235000D01*
D13*
%TO.C,U5*%
X170068109Y-123770548D02*
X164729453Y-118431892D01*
X178270548Y-115568109D02*
X172931892Y-110229453D01*
X164729453Y-118431892D02*
X172931892Y-110229453D01*
X170068109Y-123770548D02*
X178270548Y-115568109D01*
D14*
X172961892Y-110229453D02*
G75*
G02*
X172901892Y-110229453I-30000J0D01*
G01*
X172901892Y-110229453D02*
G75*
G02*
X172961892Y-110229453I30000J0D01*
G01*
D11*
%TO.C,U4*%
X139120000Y-126540000D02*
X140880000Y-126540000D01*
X140880000Y-126540000D02*
X140880000Y-125490000D01*
X139120000Y-123460000D02*
X140880000Y-123460000D01*
X140880000Y-123460000D02*
X140880000Y-124510000D01*
X139120000Y-125460000D02*
X139120000Y-124540000D01*
D14*
X138630000Y-123540000D02*
G75*
G02*
X138570000Y-123540000I-30000J0D01*
G01*
X138570000Y-123540000D02*
G75*
G02*
X138630000Y-123540000I30000J0D01*
G01*
D11*
%TO.C,U2*%
X146920000Y-126520000D02*
X146920000Y-123480000D01*
X146920000Y-123480000D02*
X152080000Y-123480000D01*
X152080000Y-123480000D02*
X152080000Y-126520000D01*
X152080000Y-126520000D02*
X146920000Y-126520000D01*
D14*
X147080000Y-128000000D02*
G75*
G02*
X147020000Y-128000000I-30000J0D01*
G01*
X147020000Y-128000000D02*
G75*
G02*
X147080000Y-128000000I30000J0D01*
G01*
D16*
X147750000Y-125770000D02*
G75*
G02*
X147430000Y-125770000I-160000J0D01*
G01*
X147430000Y-125770000D02*
G75*
G02*
X147750000Y-125770000I160000J0D01*
G01*
X146980000Y-127680000D02*
G75*
G02*
X146680000Y-127680000I-150000J0D01*
G01*
X146680000Y-127680000D02*
G75*
G02*
X146980000Y-127680000I150000J0D01*
G01*
D12*
%TO.C,R1*%
X120910000Y-108272937D02*
X120910000Y-109727065D01*
X119090000Y-108272937D02*
X119090000Y-109727065D01*
%TO.C,C9*%
X167224407Y-123481766D02*
X166870854Y-123835320D01*
X167224407Y-123835320D02*
X166870854Y-123481766D01*
X166443452Y-123747329D02*
X166347595Y-123651472D01*
X166443452Y-123747329D02*
X166443452Y-125252671D01*
X164752671Y-122056548D02*
X164848528Y-122152405D01*
X164752671Y-122056548D02*
X163247329Y-122056548D01*
X166443452Y-125252671D02*
X164000000Y-127696123D01*
X163247329Y-122056548D02*
X160803877Y-124500000D01*
X164000000Y-127696123D02*
X163151472Y-126847595D01*
X160803877Y-124500000D02*
X161652405Y-125348528D01*
%TO.C,C8*%
X163724407Y-118981766D02*
X163370854Y-119335320D01*
X163724407Y-119335320D02*
X163370854Y-118981766D01*
X162943452Y-119247329D02*
X162847595Y-119151472D01*
X162943452Y-119247329D02*
X162943452Y-120752671D01*
X161252671Y-117556548D02*
X161348528Y-117652405D01*
X161252671Y-117556548D02*
X159747329Y-117556548D01*
X162943452Y-120752671D02*
X160500000Y-123196123D01*
X159747329Y-117556548D02*
X157303877Y-120000000D01*
X160500000Y-123196123D02*
X159651472Y-122347595D01*
X157303877Y-120000000D02*
X158152405Y-120848528D01*
%TO.C,C7*%
X142490000Y-124146267D02*
X142490000Y-123853733D01*
X143510000Y-124146267D02*
X143510000Y-123853733D01*
%TO.C,C6*%
X136490000Y-125146267D02*
X136490000Y-124853733D01*
X137510000Y-125146267D02*
X137510000Y-124853733D01*
%TO.C,C5*%
X166035949Y-113742802D02*
X166242802Y-113535949D01*
X166757198Y-114464051D02*
X166964051Y-114257198D01*
%TO.C,C4*%
X169242802Y-109964051D02*
X169035949Y-109757198D01*
X169964051Y-109242802D02*
X169757198Y-109035949D01*
%TO.C,C3*%
X161500000Y-131560000D02*
X161000000Y-131560000D01*
X161250000Y-131810000D02*
X161250000Y-131310000D01*
X160760000Y-131195563D02*
X160760000Y-131060000D01*
X160760000Y-131195563D02*
X159695563Y-132260000D01*
X160760000Y-128804437D02*
X160760000Y-128940000D01*
X160760000Y-128804437D02*
X159695563Y-127740000D01*
X159695563Y-132260000D02*
X156240000Y-132260000D01*
X159695563Y-127740000D02*
X156240000Y-127740000D01*
X156240000Y-132260000D02*
X156240000Y-131060000D01*
X156240000Y-127740000D02*
X156240000Y-128940000D01*
%TO.C,C1*%
X148000000Y-129940000D02*
X148500000Y-129940000D01*
X148250000Y-129690000D02*
X148250000Y-130190000D01*
X148740000Y-130304437D02*
X148740000Y-130440000D01*
X148740000Y-130304437D02*
X149804437Y-129240000D01*
X148740000Y-132695563D02*
X148740000Y-132560000D01*
X148740000Y-132695563D02*
X149804437Y-133760000D01*
X149804437Y-129240000D02*
X153260000Y-129240000D01*
X149804437Y-133760000D02*
X153260000Y-133760000D01*
X153260000Y-129240000D02*
X153260000Y-130440000D01*
X153260000Y-133760000D02*
X153260000Y-132560000D01*
%TD*%
M02*
