%TF.GenerationSoftware,KiCad,Pcbnew,9.0.6*%
%TF.CreationDate,2026-08-21T23:19:19+03:00*%
%TF.ProjectId,spymic,7370796d-6963-42e6-9b69-6361645f7063,rev?*%
%TF.SameCoordinates,Original*%
%TF.FileFunction,Paste,Top*%
%TF.FilePolarity,Positive*%
%FSLAX46Y46*%
G04 Gerber Fmt 4.6, Leading zero omitted, Abs format (unit mm)*
G04 Created by KiCad (PCBNEW 9.0.6) date 2026-08-21 23:19:19*
%MOMM*%
%LPD*%
G01*
G04 APERTURE LIST*
G04 Aperture macros list*
%AMRoundRect*
0 Rectangle with rounded corners*
0 $1 Rounding radius*
0 $2 $3 $4 $5 $6 $7 $8 $9 X,Y pos of 4 corners*
0 Add a 4 corners polygon primitive as box body*
4,1,4,$2,$3,$4,$5,$6,$7,$8,$9,$2,$3,0*
0 Add four circle primitives for the rounded corners*
1,1,$1+$1,$2,$3*
1,1,$1+$1,$4,$5*
1,1,$1+$1,$6,$7*
1,1,$1+$1,$8,$9*
0 Add four rect primitives between the rounded corners*
20,1,$1+$1,$2,$3,$4,$5,0*
20,1,$1+$1,$4,$5,$6,$7,0*
20,1,$1+$1,$6,$7,$8,$9,0*
20,1,$1+$1,$8,$9,$2,$3,0*%
%AMRotRect*
0 Rectangle, with rotation*
0 The origin of the aperture is its center*
0 $1 length*
0 $2 width*
0 $3 Rotation angle, in degrees counterclockwise*
0 Add horizontal line*
21,1,$1,$2,0,0,$3*%
%AMFreePoly0*
4,1,245,0.928425,0.999946,0.972951,0.998879,0.975260,0.998770,1.019685,0.995646,1.022022,0.995426,1.066269,0.990219,1.068580,0.989893,1.112522,0.982629,1.114858,0.982185,1.158419,0.972837,1.160677,0.972297,1.203730,0.960944,1.205978,0.960295,1.248472,0.946934,1.250699,0.946176,1.292507,0.930835,1.294700,0.929971,1.335747,0.912673,1.337854,0.911727,1.378062,0.892550,
1.380178,0.891479,1.419421,0.870423,1.421464,0.869263,1.459691,0.846377,1.461664,0.845133,1.498773,0.820495,1.500686,0.819159,1.536602,0.792819,1.538469,0.791382,1.573089,0.763392,1.574882,0.761870,1.608181,0.732253,1.609891,0.730660,1.641743,0.699545,1.643378,0.697871,1.673756,0.665283,1.675313,0.663532,1.704117,0.629572,1.705596,0.627743,1.732774,0.592463,
1.734160,0.590573,1.759662,0.554047,1.760961,0.552090,1.784710,0.514422,1.785913,0.512413,1.807884,0.473653,1.808981,0.471607,1.829123,0.431881,1.833256,0.420476,1.842571,0.379971,3.500095,0.379971,3.535450,0.365326,3.550095,0.329971,3.550095,-0.330022,3.535450,-0.365377,3.500095,-0.380022,1.842578,-0.380022,1.833258,-0.420572,1.829123,-0.431983,1.808981,-0.471708,
1.807884,-0.473753,1.785913,-0.512514,1.784710,-0.514524,1.760961,-0.552192,1.759662,-0.554150,1.734160,-0.590675,1.732774,-0.592564,1.705596,-0.627845,1.704117,-0.629674,1.675313,-0.663634,1.673756,-0.665385,1.643378,-0.697973,1.641743,-0.699647,1.609891,-0.730762,1.608181,-0.732356,1.574882,-0.761972,1.573089,-0.763492,1.538469,-0.791483,1.536602,-0.792921,1.500686,-0.819261,
1.498773,-0.820597,1.461664,-0.845235,1.459691,-0.846480,1.421464,-0.869365,1.419422,-0.870523,1.380179,-0.891580,1.378062,-0.892652,1.337854,-0.911829,1.335746,-0.912775,1.294699,-0.930072,1.292508,-0.930935,1.250700,-0.946277,1.248471,-0.947036,1.205977,-0.960396,1.203731,-0.961045,1.160678,-0.972399,1.158418,-0.972939,1.114857,-0.982286,1.112523,-0.982729,1.068581,-0.989994,
1.066269,-0.990321,1.022022,-0.995528,1.019685,-0.995748,0.975260,-0.998872,0.972951,-0.998981,0.928425,-1.000048,0.927227,-1.000062,-0.926973,-1.000062,-0.928171,-1.000048,-0.972697,-0.998981,-0.975006,-0.998872,-1.019431,-0.995748,-1.021768,-0.995528,-1.066015,-0.990321,-1.068327,-0.989994,-1.112269,-0.982729,-1.114603,-0.982286,-1.158164,-0.972939,-1.160424,-0.972399,-1.203477,-0.961045,
-1.205723,-0.960396,-1.248217,-0.947036,-1.250446,-0.946277,-1.292254,-0.930935,-1.294445,-0.930072,-1.335492,-0.912775,-1.337600,-0.911829,-1.377808,-0.892652,-1.379925,-0.891580,-1.419168,-0.870523,-1.421210,-0.869365,-1.459437,-0.846480,-1.461410,-0.845235,-1.498519,-0.820597,-1.500432,-0.819261,-1.536348,-0.792921,-1.538215,-0.791483,-1.572835,-0.763492,-1.574628,-0.761972,-1.607927,-0.732356,
-1.609637,-0.730762,-1.641489,-0.699647,-1.643124,-0.697973,-1.673502,-0.665385,-1.675059,-0.663634,-1.703863,-0.629674,-1.705342,-0.627845,-1.732520,-0.592564,-1.733906,-0.590675,-1.759408,-0.554150,-1.760707,-0.552192,-1.784456,-0.514524,-1.785659,-0.512514,-1.807630,-0.473753,-1.808727,-0.471708,-1.828869,-0.431983,-1.829891,-0.429843,-1.848128,-0.389203,-1.849027,-0.387070,-1.865359,-0.345642,
-1.866176,-0.343414,-1.880527,-0.301250,-1.881228,-0.299023,-1.893598,-0.256224,-1.894199,-0.253944,-1.904537,-0.210612,-1.905024,-0.208337,-1.913330,-0.164598,-1.913714,-0.162281,-1.919962,-0.118161,-1.920237,-0.115826,-1.924403,-0.071478,-1.924567,-0.069140,-1.926649,-0.024665,-1.926704,-0.022327,-1.926704,0.022225,-1.926649,0.024563,-1.924567,0.069038,-1.924403,0.071376,-1.920237,0.115725,
-1.919962,0.118060,-1.913714,0.162180,-1.913330,0.164497,-1.905024,0.208235,-1.904537,0.210510,-1.894199,0.253843,-1.893598,0.256123,-1.881228,0.298922,-1.880527,0.301149,-1.866176,0.343313,-1.865359,0.345541,-1.849027,0.386968,-1.848128,0.389101,-1.829891,0.429741,-1.828869,0.431881,-1.808727,0.471607,-1.807630,0.473653,-1.785659,0.512413,-1.784456,0.514422,-1.760707,0.552090,
-1.759408,0.554047,-1.733906,0.590573,-1.732520,0.592463,-1.705342,0.627743,-1.703863,0.629572,-1.675059,0.663532,-1.673502,0.665283,-1.643124,0.697871,-1.641489,0.699545,-1.609637,0.730660,-1.607927,0.732253,-1.574628,0.761870,-1.572835,0.763392,-1.538215,0.791382,-1.536348,0.792819,-1.500432,0.819159,-1.498519,0.820495,-1.461410,0.845133,-1.459437,0.846377,-1.421210,0.869263,
-1.419167,0.870423,-1.379924,0.891479,-1.377808,0.892550,-1.337600,0.911727,-1.335493,0.912673,-1.294446,0.929971,-1.292253,0.930835,-1.250445,0.946176,-1.248218,0.946934,-1.205724,0.960295,-1.203476,0.960944,-1.160423,0.972297,-1.158165,0.972837,-1.114604,0.982185,-1.112268,0.982629,-1.068326,0.989893,-1.066015,0.990219,-1.021768,0.995426,-1.019431,0.995646,-0.975006,0.998770,
-0.972697,0.998879,-0.928171,0.999946,-0.926973,0.999960,0.927227,0.999960,0.928425,0.999946,0.928425,0.999946,$1*%
G04 Aperture macros list end*
%ADD10RoundRect,0.237500X0.237500X-0.250000X0.237500X0.250000X-0.237500X0.250000X-0.237500X-0.250000X0*%
%ADD11RoundRect,0.237500X-0.044194X-0.380070X0.380070X0.044194X0.044194X0.380070X-0.380070X-0.044194X0*%
%ADD12R,1.500000X3.000000*%
%ADD13RoundRect,0.237500X0.300000X0.237500X-0.300000X0.237500X-0.300000X-0.237500X0.300000X-0.237500X0*%
%ADD14RoundRect,0.237500X0.380070X-0.044194X-0.044194X0.380070X-0.380070X0.044194X0.044194X-0.380070X0*%
%ADD15RoundRect,0.237500X-0.237500X0.250000X-0.237500X-0.250000X0.237500X-0.250000X0.237500X0.250000X0*%
%ADD16RoundRect,0.237500X-0.344715X0.008839X0.008839X-0.344715X0.344715X-0.008839X-0.008839X0.344715X0*%
%ADD17RoundRect,0.250000X0.625000X-0.400000X0.625000X0.400000X-0.625000X0.400000X-0.625000X-0.400000X0*%
%ADD18RotRect,0.600000X1.000000X315.000000*%
%ADD19RoundRect,0.250000X-0.550000X1.050000X-0.550000X-1.050000X0.550000X-1.050000X0.550000X1.050000X0*%
%ADD20FreePoly0,90.000000*%
%ADD21R,0.672000X1.575000*%
%ADD22R,1.070000X0.600000*%
%ADD23O,0.630000X1.865000*%
%ADD24RoundRect,0.250000X-0.625000X0.400000X-0.625000X-0.400000X0.625000X-0.400000X0.625000X0.400000X0*%
%ADD25RoundRect,0.250000X0.353553X1.131371X-1.131371X-0.353553X-0.353553X-1.131371X1.131371X0.353553X0*%
%ADD26RoundRect,0.237500X0.237500X-0.300000X0.237500X0.300000X-0.237500X0.300000X-0.237500X-0.300000X0*%
%ADD27RoundRect,0.250000X1.050000X0.550000X-1.050000X0.550000X-1.050000X-0.550000X1.050000X-0.550000X0*%
%ADD28RoundRect,0.250000X-1.050000X-0.550000X1.050000X-0.550000X1.050000X0.550000X-1.050000X0.550000X0*%
G04 APERTURE END LIST*
D10*
%TO.C,R2*%
X124500000Y-111412501D03*
X124500000Y-109587501D03*
%TD*%
D11*
%TO.C,C10*%
X127609881Y-106890120D03*
X126390119Y-108109882D03*
%TD*%
D12*
%TO.C,CN1*%
X127076888Y-103500000D03*
X125676888Y-96500001D03*
X121676888Y-96500000D03*
X118676888Y-96500000D03*
%TD*%
D13*
%TO.C,C12*%
X123862502Y-107500000D03*
X122137500Y-107500000D03*
%TD*%
D14*
%TO.C,C11*%
X127890120Y-90890119D03*
X129109882Y-92109881D03*
%TD*%
D15*
%TO.C,R6*%
X128000000Y-95912499D03*
X128000000Y-94087501D03*
%TD*%
D16*
%TO.C,R4*%
X126645234Y-89145234D03*
X125354766Y-87854766D03*
%TD*%
D17*
%TO.C,R8*%
X122500000Y-109449999D03*
X122500000Y-112550001D03*
%TD*%
D15*
%TO.C,R3*%
X126000000Y-113412501D03*
X126000000Y-111587501D03*
%TD*%
D18*
%TO.C,U6*%
X128222182Y-110277817D03*
X128893932Y-110949569D03*
X127550431Y-109606066D03*
X130449567Y-109393934D03*
X129106066Y-108050431D03*
%TD*%
D19*
%TO.C,C2*%
X144000000Y-128400000D03*
X144000000Y-132000000D03*
%TD*%
D20*
%TO.C,U3*%
X155500000Y-125360000D03*
D21*
X154000000Y-122640000D03*
X157000000Y-122640000D03*
%TD*%
D22*
%TO.C,U4*%
X138760000Y-124050000D03*
X138760000Y-125950000D03*
X141240000Y-125000000D03*
%TD*%
D23*
%TO.C,U2*%
X147590000Y-127680000D03*
X148870000Y-127680000D03*
X150130000Y-127680000D03*
X151400000Y-127680000D03*
X147590000Y-122320000D03*
X148870000Y-122320000D03*
X150130000Y-122320000D03*
X151400000Y-122320000D03*
%TD*%
D24*
%TO.C,R1*%
X120000000Y-107450001D03*
X120000000Y-110550001D03*
%TD*%
D25*
%TO.C,C9*%
X165272792Y-123227208D03*
X162727208Y-125772792D03*
%TD*%
%TO.C,C8*%
X161772792Y-118727208D03*
X159227208Y-121272792D03*
%TD*%
D26*
%TO.C,C7*%
X143000000Y-124862500D03*
X143000000Y-123137500D03*
%TD*%
%TO.C,C6*%
X137000000Y-125862500D03*
X137000000Y-124137500D03*
%TD*%
D11*
%TO.C,C5*%
X165890120Y-114609880D03*
X167109880Y-113390120D03*
%TD*%
D14*
%TO.C,C4*%
X170109880Y-110109880D03*
X168890120Y-108890120D03*
%TD*%
D27*
%TO.C,C3*%
X160300000Y-130000000D03*
X156700000Y-130000000D03*
%TD*%
D28*
%TO.C,C1*%
X149200000Y-131500000D03*
X152800000Y-131500000D03*
%TD*%
M02*
